M48
; DRILL file {KiCad 7.0.11+dfsg-1build4} date Fri 28 Mar 2025 10:18:12 PM EDT
; FORMAT={-:-/ absolute / inch / decimal}
; #@! TF.CreationDate,2025-03-28T22:18:12-04:00
; #@! TF.GenerationSoftware,Kicad,Pcbnew,7.0.11+dfsg-1build4
; #@! TF.FileFunction,Plated,1,2,PTH
FMAT,2
INCH
; #@! TA.AperFunction,Plated,PTH,ViaDrill
T1C0.0118
; #@! TA.AperFunction,Plated,PTH,ComponentDrill
T2C0.0394
; #@! TA.AperFunction,Plated,PTH,ComponentDrill
T3C0.0413
%
G90
G05
T1
X5.62Y-4.78
X5.6634Y-4.8228
X5.72Y-4.46
X5.72Y-4.69
X5.7222Y-5.1
X5.7265Y-4.7835
X5.93Y-4.67
X5.93Y-4.83
X5.94Y-5.13
X5.9765Y-4.6085
X5.98Y-4.45
X5.9911Y-4.9439
X6.08Y-4.64
X6.13Y-4.89
X6.17Y-4.75
X6.1765Y-4.9835
X6.23Y-5.15
X6.32Y-4.64
X6.3515Y-4.9835
X6.37Y-4.4
X6.4265Y-4.5835
X6.4265Y-4.9835
X6.4765Y-4.5835
X6.4765Y-4.9835
X6.5265Y-4.9835
X6.5265Y-5.0835
X6.57Y-4.66
X6.59Y-4.83
X6.65Y-4.46
X6.65Y-5.16
X6.84Y-4.83
T2
X6.9668Y-4.529
X6.9668Y-4.629
X6.9668Y-4.729
X6.9668Y-4.829
X6.9668Y-4.929
X6.9668Y-5.029
T3
G00X5.4705Y-4.5535
M15
G01X5.4115Y-4.5535
M16
G05
G00X5.4705Y-5.0135
M15
G01X5.4115Y-5.0135
M16
G05
M30
