%TF.GenerationSoftware,KiCad,Pcbnew,7.0.11+dfsg-1build4*%
%TF.CreationDate,2025-03-28T22:18:16-04:00*%
%TF.ProjectId,BadUSB,42616455-5342-42e6-9b69-6361645f7063,rev?*%
%TF.SameCoordinates,Original*%
%TF.FileFunction,Copper,L1,Top*%
%TF.FilePolarity,Positive*%
%FSLAX46Y46*%
G04 Gerber Fmt 4.6, Leading zero omitted, Abs format (unit mm)*
G04 Created by KiCad (PCBNEW 7.0.11+dfsg-1build4) date 2025-03-28 22:18:16*
%MOMM*%
%LPD*%
G01*
G04 APERTURE LIST*
G04 Aperture macros list*
%AMRoundRect*
0 Rectangle with rounded corners*
0 $1 Rounding radius*
0 $2 $3 $4 $5 $6 $7 $8 $9 X,Y pos of 4 corners*
0 Add a 4 corners polygon primitive as box body*
4,1,4,$2,$3,$4,$5,$6,$7,$8,$9,$2,$3,0*
0 Add four circle primitives for the rounded corners*
1,1,$1+$1,$2,$3*
1,1,$1+$1,$4,$5*
1,1,$1+$1,$6,$7*
1,1,$1+$1,$8,$9*
0 Add four rect primitives between the rounded corners*
20,1,$1+$1,$2,$3,$4,$5,0*
20,1,$1+$1,$4,$5,$6,$7,0*
20,1,$1+$1,$6,$7,$8,$9,0*
20,1,$1+$1,$8,$9,$2,$3,0*%
G04 Aperture macros list end*
%TA.AperFunction,ComponentPad*%
%ADD10O,2.997200X1.498600*%
%TD*%
%TA.AperFunction,SMDPad,CuDef*%
%ADD11R,2.006600X1.092200*%
%TD*%
%TA.AperFunction,SMDPad,CuDef*%
%ADD12RoundRect,0.250000X-0.475000X0.337500X-0.475000X-0.337500X0.475000X-0.337500X0.475000X0.337500X0*%
%TD*%
%TA.AperFunction,SMDPad,CuDef*%
%ADD13RoundRect,0.250000X0.475000X-0.337500X0.475000X0.337500X-0.475000X0.337500X-0.475000X-0.337500X0*%
%TD*%
%TA.AperFunction,SMDPad,CuDef*%
%ADD14R,2.600000X1.500000*%
%TD*%
%TA.AperFunction,ComponentPad*%
%ADD15R,1.700000X1.700000*%
%TD*%
%TA.AperFunction,ComponentPad*%
%ADD16O,1.700000X1.700000*%
%TD*%
%TA.AperFunction,SMDPad,CuDef*%
%ADD17RoundRect,0.237500X-0.300000X-0.237500X0.300000X-0.237500X0.300000X0.237500X-0.300000X0.237500X0*%
%TD*%
%TA.AperFunction,SMDPad,CuDef*%
%ADD18RoundRect,0.237500X0.300000X0.237500X-0.300000X0.237500X-0.300000X-0.237500X0.300000X-0.237500X0*%
%TD*%
%TA.AperFunction,SMDPad,CuDef*%
%ADD19RoundRect,0.250000X-0.650000X0.412500X-0.650000X-0.412500X0.650000X-0.412500X0.650000X0.412500X0*%
%TD*%
%TA.AperFunction,SMDPad,CuDef*%
%ADD20RoundRect,0.150000X-0.512500X-0.150000X0.512500X-0.150000X0.512500X0.150000X-0.512500X0.150000X0*%
%TD*%
%TA.AperFunction,SMDPad,CuDef*%
%ADD21RoundRect,0.243750X-0.243750X-0.456250X0.243750X-0.456250X0.243750X0.456250X-0.243750X0.456250X0*%
%TD*%
%TA.AperFunction,SMDPad,CuDef*%
%ADD22RoundRect,0.150000X0.150000X-0.825000X0.150000X0.825000X-0.150000X0.825000X-0.150000X-0.825000X0*%
%TD*%
%TA.AperFunction,ViaPad*%
%ADD23C,0.600000*%
%TD*%
%TA.AperFunction,Conductor*%
%ADD24C,0.381000*%
%TD*%
%TA.AperFunction,Conductor*%
%ADD25C,0.200000*%
%TD*%
G04 APERTURE END LIST*
D10*
%TO.P,J1,8*%
%TO.N,GND*%
X138201300Y-127343000D03*
%TO.P,J1,7*%
X138201300Y-115659000D03*
D11*
%TO.P,J1,4,GND*%
X140690500Y-125001001D03*
%TO.P,J1,3,D+*%
%TO.N,D+*%
X140690500Y-122501001D03*
%TO.P,J1,2,D-*%
%TO.N,D-*%
X140690500Y-120500999D03*
%TO.P,J1,1,VBUS*%
%TO.N,VDD*%
X140690500Y-118000999D03*
%TD*%
D12*
%TO.P,R3,1*%
%TO.N,PGC*%
X170218000Y-118558500D03*
%TO.P,R3,2*%
%TO.N,Net-(D2-A)*%
X170218000Y-120633500D03*
%TD*%
D13*
%TO.P,R2,1*%
%TO.N,VDD*%
X158153000Y-125078500D03*
%TO.P,R2,2*%
%TO.N,MCLR*%
X158153000Y-123003500D03*
%TD*%
D14*
%TO.P,D2,1,K*%
%TO.N,GND*%
X170218000Y-126811000D03*
%TO.P,D2,2,A*%
%TO.N,Net-(D2-A)*%
X170218000Y-123811000D03*
%TD*%
D15*
%TO.P,J2,1,Pin_1*%
%TO.N,MCLR*%
X176956000Y-115037000D03*
D16*
%TO.P,J2,2,Pin_2*%
%TO.N,VDD*%
X176956000Y-117577000D03*
%TO.P,J2,3,Pin_3*%
%TO.N,GND*%
X176956000Y-120117000D03*
%TO.P,J2,4,Pin_4*%
%TO.N,PGD*%
X176956000Y-122657000D03*
%TO.P,J2,5,Pin_5*%
%TO.N,PGC*%
X176956000Y-125197000D03*
%TO.P,J2,6,Pin_6*%
%TO.N,unconnected-(J2-Pin_6-Pad6)*%
X176956000Y-127737000D03*
%TD*%
D17*
%TO.P,C1,1*%
%TO.N,VDD*%
X162370500Y-129121000D03*
%TO.P,C1,2*%
%TO.N,GND*%
X164095500Y-129121000D03*
%TD*%
D18*
%TO.P,C2,1*%
%TO.N,VDD*%
X155205500Y-126581000D03*
%TO.P,C2,2*%
%TO.N,GND*%
X153480500Y-126581000D03*
%TD*%
D19*
%TO.P,C3,1*%
%TO.N,VDD*%
X153708000Y-119938500D03*
%TO.P,C3,2*%
%TO.N,GND*%
X153708000Y-123063500D03*
%TD*%
D20*
%TO.P,U2,1,SCL*%
%TO.N,SCL*%
X156380500Y-117376000D03*
%TO.P,U2,2,V_{SS}*%
%TO.N,GND*%
X156380500Y-118326000D03*
%TO.P,U2,3,SDA*%
%TO.N,PGC*%
X156380500Y-119276000D03*
%TO.P,U2,4,V_{CC}*%
%TO.N,VDD*%
X158655500Y-119276000D03*
%TO.P,U2,5,WP*%
%TO.N,PGD*%
X158655500Y-117376000D03*
%TD*%
D21*
%TO.P,D1,1,K*%
%TO.N,VDD*%
X144515500Y-117056000D03*
%TO.P,D1,2,A*%
X146390500Y-117056000D03*
%TD*%
D22*
%TO.P,U1,1,VDD*%
%TO.N,VDD*%
X161963000Y-123976000D03*
%TO.P,U1,2,RA5*%
%TO.N,D-*%
X163233000Y-123976000D03*
%TO.P,U1,3,RA4*%
%TO.N,D+*%
X164503000Y-123976000D03*
%TO.P,U1,4,RA3*%
%TO.N,MCLR*%
X165773000Y-123976000D03*
%TO.P,U1,5,RA2*%
%TO.N,SCL*%
X165773000Y-119026000D03*
%TO.P,U1,6,RA1*%
%TO.N,PGC*%
X164503000Y-119026000D03*
%TO.P,U1,7,RA0*%
%TO.N,PGD*%
X163233000Y-119026000D03*
%TO.P,U1,8,VSS*%
%TO.N,GND*%
X161963000Y-119026000D03*
%TD*%
D12*
%TO.P,R1,1*%
%TO.N,VDD*%
X148628000Y-119426000D03*
%TO.P,R1,2*%
%TO.N,D+*%
X148628000Y-121501000D03*
%TD*%
D23*
%TO.N,VDD*%
X156883000Y-126581000D03*
X151803000Y-117056000D03*
X161328000Y-126581000D03*
%TO.N,GND*%
X167386000Y-122682000D03*
X150622000Y-122682000D03*
X156718000Y-120650000D03*
X168910000Y-113284000D03*
X145288000Y-119126000D03*
X165773000Y-129121000D03*
X158242000Y-130810000D03*
X151892000Y-113030000D03*
X145343999Y-129540000D03*
X150622000Y-118618000D03*
X173736000Y-122682000D03*
X142748000Y-121412000D03*
X150876000Y-130302000D03*
X166878000Y-118364000D03*
X168910000Y-131064000D03*
X160528000Y-117856000D03*
X152175000Y-125575000D03*
X161798000Y-111760000D03*
X145288000Y-113284000D03*
X155702000Y-124206000D03*
%TO.N,D-*%
X163233000Y-126581000D03*
X145453000Y-121501000D03*
%TO.N,D+*%
X164503000Y-126581000D03*
X143850000Y-122500000D03*
%TO.N,MCLR*%
X165773000Y-126581000D03*
%TO.N,PGD*%
X163233000Y-116421000D03*
%TO.N,PGC*%
X164503000Y-116421000D03*
X154432000Y-117856000D03*
%TD*%
D24*
%TO.N,VDD*%
X140690500Y-118000999D02*
X142603001Y-118000999D01*
X161963000Y-123976000D02*
X161963000Y-125946000D01*
X148628000Y-117056000D02*
X151803000Y-117056000D01*
X161328000Y-127851000D02*
X162370500Y-128893500D01*
X158788000Y-126581000D02*
X161328000Y-126581000D01*
X159423000Y-120866000D02*
X158153000Y-120866000D01*
X156883000Y-122136000D02*
X156883000Y-126581000D01*
X158153000Y-126581000D02*
X158788000Y-126581000D01*
X160058000Y-119596000D02*
X160058000Y-120231000D01*
X148628000Y-117056000D02*
X148628000Y-119426000D01*
X143570501Y-118000999D02*
X144515500Y-117056000D01*
X159738000Y-119276000D02*
X160058000Y-119596000D01*
X146390500Y-117056000D02*
X148628000Y-117056000D01*
X156883000Y-126581000D02*
X155205500Y-126581000D01*
X161963000Y-125946000D02*
X161328000Y-126581000D01*
X156883000Y-126581000D02*
X158153000Y-126581000D01*
X158153000Y-120866000D02*
X156883000Y-122136000D01*
X158655500Y-119276000D02*
X159738000Y-119276000D01*
X140690500Y-118000999D02*
X143570501Y-118000999D01*
X153708000Y-118961000D02*
X151803000Y-117056000D01*
X161328000Y-126581000D02*
X161328000Y-127851000D01*
X160058000Y-120231000D02*
X159423000Y-120866000D01*
X162370500Y-128893500D02*
X162370500Y-129121000D01*
X153708000Y-119938500D02*
X153708000Y-118961000D01*
X158153000Y-125078500D02*
X158153000Y-126581000D01*
%TO.N,Net-(D2-A)*%
X170218000Y-120633500D02*
X170218000Y-123811000D01*
%TO.N,D-*%
X144452999Y-120500999D02*
X140690500Y-120500999D01*
X145453000Y-121501000D02*
X144452999Y-120500999D01*
X163233000Y-123976000D02*
X163233000Y-126581000D01*
%TO.N,D+*%
X143850000Y-122500000D02*
X145365500Y-124015500D01*
X140690500Y-122501001D02*
X143848999Y-122501001D01*
X164503000Y-123976000D02*
X164503000Y-126581000D01*
D25*
X143848999Y-122501001D02*
X143850000Y-122500000D01*
D24*
X145365500Y-124015500D02*
X147383500Y-124015500D01*
X148628000Y-122771000D02*
X147383500Y-124015500D01*
X148628000Y-121501000D02*
X148628000Y-122771000D01*
%TO.N,MCLR*%
X158153000Y-122136000D02*
X158153000Y-123003500D01*
X158788000Y-121501000D02*
X158153000Y-122136000D01*
X165773000Y-123001001D02*
X164272999Y-121501000D01*
X165773000Y-123976000D02*
X165773000Y-126581000D01*
X165773000Y-123976000D02*
X165773000Y-123001001D01*
X164272999Y-121501000D02*
X158788000Y-121501000D01*
%TO.N,PGD*%
X161963000Y-115151000D02*
X159925500Y-115151000D01*
X161963000Y-115151000D02*
X163233000Y-116421000D01*
X159925500Y-115151000D02*
X158655500Y-116421000D01*
X163233000Y-119026000D02*
X163233000Y-116421000D01*
X158655500Y-117376000D02*
X158655500Y-116421000D01*
%TO.N,PGC*%
X155344000Y-119276000D02*
X154432000Y-118364000D01*
X164503000Y-119026000D02*
X164503000Y-116421000D01*
X164503000Y-120866000D02*
X165138000Y-121501000D01*
X167678000Y-118961000D02*
X168080500Y-118558500D01*
X167678000Y-120866000D02*
X167678000Y-118961000D01*
X154432000Y-118364000D02*
X154432000Y-117856000D01*
X167043000Y-121501000D02*
X167678000Y-120866000D01*
X164503000Y-119026000D02*
X164503000Y-120866000D01*
X156380500Y-119276000D02*
X155344000Y-119276000D01*
X168080500Y-118558500D02*
X170218000Y-118558500D01*
X165138000Y-121501000D02*
X167043000Y-121501000D01*
%TO.N,SCL*%
X157518000Y-116238500D02*
X157518000Y-115151000D01*
X157518000Y-115151000D02*
X158788000Y-113881000D01*
X163868000Y-113881000D02*
X165773000Y-115786000D01*
X158788000Y-113881000D02*
X163868000Y-113881000D01*
X156380500Y-117376000D02*
X157518000Y-116238500D01*
X165773000Y-115786000D02*
X165773000Y-119026000D01*
%TD*%
%TA.AperFunction,Conductor*%
%TO.N,GND*%
G36*
X161692455Y-115861685D02*
G01*
X161713097Y-115878319D01*
X162434400Y-116599622D01*
X162463760Y-116646348D01*
X162507210Y-116770520D01*
X162507213Y-116770526D01*
X162522993Y-116795639D01*
X162542000Y-116861612D01*
X162542000Y-117483993D01*
X162522315Y-117551032D01*
X162469511Y-117596787D01*
X162400353Y-117606731D01*
X162380884Y-117601224D01*
X162380690Y-117601894D01*
X162215494Y-117553900D01*
X162215497Y-117553900D01*
X162213000Y-117553703D01*
X162213000Y-120498295D01*
X162213001Y-120498295D01*
X162215486Y-120498100D01*
X162373198Y-120452281D01*
X162514550Y-120368686D01*
X162520717Y-120363903D01*
X162522630Y-120366369D01*
X162571222Y-120339802D01*
X162640917Y-120344749D01*
X162673762Y-120365853D01*
X162674969Y-120364298D01*
X162681132Y-120369078D01*
X162681135Y-120369081D01*
X162822602Y-120452744D01*
X162824055Y-120453166D01*
X162980426Y-120498597D01*
X162980429Y-120498597D01*
X162980431Y-120498598D01*
X163017306Y-120501500D01*
X163017314Y-120501500D01*
X163448686Y-120501500D01*
X163448694Y-120501500D01*
X163485569Y-120498598D01*
X163485571Y-120498597D01*
X163485573Y-120498597D01*
X163650890Y-120450568D01*
X163651645Y-120453166D01*
X163708070Y-120446190D01*
X163771039Y-120476466D01*
X163807645Y-120535979D01*
X163812000Y-120568555D01*
X163812000Y-120686000D01*
X163792315Y-120753039D01*
X163739511Y-120798794D01*
X163688000Y-120810000D01*
X160736865Y-120810000D01*
X160669826Y-120790315D01*
X160624071Y-120737511D01*
X160614127Y-120668353D01*
X160639256Y-120609525D01*
X160653688Y-120591105D01*
X160657722Y-120582139D01*
X160668754Y-120562580D01*
X160674342Y-120554485D01*
X160674342Y-120554484D01*
X160674344Y-120554482D01*
X160695371Y-120499035D01*
X160698217Y-120492165D01*
X160722558Y-120438084D01*
X160724332Y-120428397D01*
X160730359Y-120406778D01*
X160733848Y-120397582D01*
X160740990Y-120338754D01*
X160742117Y-120331353D01*
X160752805Y-120273033D01*
X160752806Y-120273028D01*
X160749226Y-120213849D01*
X160749000Y-120206361D01*
X160749000Y-119620624D01*
X160749226Y-119613137D01*
X160749637Y-119606351D01*
X160752805Y-119553971D01*
X160742117Y-119495652D01*
X160740994Y-119488276D01*
X160733848Y-119429418D01*
X160730359Y-119420218D01*
X160724331Y-119398596D01*
X160722557Y-119388915D01*
X160698220Y-119334840D01*
X160695361Y-119327936D01*
X160675665Y-119276000D01*
X161163000Y-119276000D01*
X161163000Y-119916649D01*
X161165899Y-119953489D01*
X161165900Y-119953495D01*
X161211716Y-120111193D01*
X161211717Y-120111196D01*
X161295314Y-120252552D01*
X161295321Y-120252561D01*
X161411438Y-120368678D01*
X161411447Y-120368685D01*
X161552801Y-120452281D01*
X161710514Y-120498100D01*
X161710511Y-120498100D01*
X161712998Y-120498295D01*
X161713000Y-120498295D01*
X161713000Y-119276000D01*
X161163000Y-119276000D01*
X160675665Y-119276000D01*
X160674344Y-119272518D01*
X160668754Y-119264420D01*
X160657725Y-119244865D01*
X160653688Y-119235895D01*
X160653687Y-119235893D01*
X160637582Y-119215336D01*
X160617132Y-119189233D01*
X160612703Y-119183214D01*
X160579020Y-119134417D01*
X160534639Y-119095099D01*
X160529201Y-119089979D01*
X160244027Y-118804805D01*
X160238893Y-118799351D01*
X160218205Y-118776000D01*
X161163000Y-118776000D01*
X161713000Y-118776000D01*
X161713000Y-117553703D01*
X161710503Y-117553900D01*
X161552806Y-117599716D01*
X161552803Y-117599717D01*
X161411447Y-117683314D01*
X161411438Y-117683321D01*
X161295321Y-117799438D01*
X161295314Y-117799447D01*
X161211717Y-117940803D01*
X161211716Y-117940806D01*
X161165900Y-118098504D01*
X161165899Y-118098510D01*
X161163000Y-118135350D01*
X161163000Y-118776000D01*
X160218205Y-118776000D01*
X160199583Y-118754980D01*
X160150792Y-118721302D01*
X160144760Y-118716863D01*
X160098108Y-118680314D01*
X160098099Y-118680308D01*
X160089134Y-118676274D01*
X160069586Y-118665250D01*
X160061482Y-118659656D01*
X160061478Y-118659653D01*
X160006061Y-118638636D01*
X159999144Y-118635772D01*
X159945081Y-118611441D01*
X159945082Y-118611441D01*
X159935395Y-118609666D01*
X159913792Y-118603644D01*
X159904582Y-118600152D01*
X159845735Y-118593006D01*
X159838333Y-118591879D01*
X159780030Y-118581195D01*
X159780025Y-118581195D01*
X159720861Y-118584774D01*
X159713374Y-118585000D01*
X159565033Y-118585000D01*
X159501912Y-118567732D01*
X159474107Y-118551288D01*
X159428398Y-118524256D01*
X159428397Y-118524255D01*
X159428396Y-118524255D01*
X159428393Y-118524254D01*
X159270573Y-118478402D01*
X159270567Y-118478401D01*
X159233701Y-118475500D01*
X159233694Y-118475500D01*
X158077306Y-118475500D01*
X158077298Y-118475500D01*
X158040432Y-118478401D01*
X158040426Y-118478402D01*
X157882606Y-118524254D01*
X157882603Y-118524255D01*
X157741137Y-118607917D01*
X157734969Y-118612702D01*
X157733664Y-118611019D01*
X157681954Y-118639246D01*
X157612263Y-118634251D01*
X157564558Y-118602247D01*
X157540296Y-118576000D01*
X157274815Y-118576000D01*
X157211694Y-118558732D01*
X157199107Y-118551288D01*
X157153398Y-118524256D01*
X157153397Y-118524255D01*
X157153396Y-118524255D01*
X157153393Y-118524254D01*
X156995573Y-118478402D01*
X156995567Y-118478401D01*
X156958701Y-118475500D01*
X156958694Y-118475500D01*
X156254500Y-118475500D01*
X156187461Y-118455815D01*
X156141706Y-118403011D01*
X156130500Y-118351500D01*
X156130500Y-118300500D01*
X156150185Y-118233461D01*
X156202989Y-118187706D01*
X156254500Y-118176500D01*
X156958686Y-118176500D01*
X156958694Y-118176500D01*
X156995569Y-118173598D01*
X156995571Y-118173597D01*
X156995573Y-118173597D01*
X157037191Y-118161505D01*
X157153398Y-118127744D01*
X157211694Y-118093268D01*
X157274815Y-118076000D01*
X157540294Y-118076000D01*
X157564557Y-118049752D01*
X157624518Y-118013885D01*
X157694352Y-118016129D01*
X157734012Y-118040530D01*
X157734969Y-118039298D01*
X157741132Y-118044078D01*
X157741135Y-118044081D01*
X157882602Y-118127744D01*
X157908782Y-118135350D01*
X158040426Y-118173597D01*
X158040429Y-118173597D01*
X158040431Y-118173598D01*
X158077306Y-118176500D01*
X158077314Y-118176500D01*
X159233686Y-118176500D01*
X159233694Y-118176500D01*
X159270569Y-118173598D01*
X159270571Y-118173597D01*
X159270573Y-118173597D01*
X159312191Y-118161505D01*
X159428398Y-118127744D01*
X159569865Y-118044081D01*
X159686081Y-117927865D01*
X159769744Y-117786398D01*
X159815598Y-117628569D01*
X159818500Y-117591694D01*
X159818500Y-117160306D01*
X159815598Y-117123431D01*
X159812667Y-117113344D01*
X159769745Y-116965606D01*
X159769744Y-116965603D01*
X159769744Y-116965602D01*
X159686081Y-116824135D01*
X159686079Y-116824133D01*
X159686076Y-116824129D01*
X159569870Y-116707923D01*
X159569864Y-116707918D01*
X159567425Y-116706476D01*
X159566666Y-116706027D01*
X159564672Y-116703891D01*
X159563702Y-116703139D01*
X159563823Y-116702982D01*
X159518983Y-116654959D01*
X159506479Y-116586217D01*
X159533124Y-116521628D01*
X159542096Y-116511625D01*
X160175403Y-115878319D01*
X160236726Y-115844834D01*
X160263084Y-115842000D01*
X161625416Y-115842000D01*
X161692455Y-115861685D01*
G37*
%TD.AperFunction*%
%TA.AperFunction,Conductor*%
G36*
X175097863Y-109769685D02*
G01*
X175118505Y-109786319D01*
X177262001Y-111929815D01*
X177265436Y-111933389D01*
X178217116Y-112964376D01*
X178248123Y-113026988D01*
X178250000Y-113048482D01*
X178250000Y-113646450D01*
X178230315Y-113713489D01*
X178177511Y-113759244D01*
X178108353Y-113769188D01*
X178051694Y-113745721D01*
X178048332Y-113743204D01*
X178048328Y-113743202D01*
X177913482Y-113692908D01*
X177913483Y-113692908D01*
X177853883Y-113686501D01*
X177853881Y-113686500D01*
X177853873Y-113686500D01*
X177853864Y-113686500D01*
X176058129Y-113686500D01*
X176058123Y-113686501D01*
X175998516Y-113692908D01*
X175863671Y-113743202D01*
X175863664Y-113743206D01*
X175748455Y-113829452D01*
X175748452Y-113829455D01*
X175662206Y-113944664D01*
X175662202Y-113944671D01*
X175611908Y-114079517D01*
X175605501Y-114139116D01*
X175605500Y-114139135D01*
X175605500Y-115934870D01*
X175605501Y-115934876D01*
X175611908Y-115994483D01*
X175662202Y-116129328D01*
X175662206Y-116129335D01*
X175748452Y-116244544D01*
X175748455Y-116244547D01*
X175863664Y-116330793D01*
X175863671Y-116330797D01*
X175995081Y-116379810D01*
X176051015Y-116421681D01*
X176075432Y-116487145D01*
X176060580Y-116555418D01*
X176039430Y-116583673D01*
X175917503Y-116705600D01*
X175781965Y-116899169D01*
X175781964Y-116899171D01*
X175682098Y-117113335D01*
X175682094Y-117113344D01*
X175620938Y-117341586D01*
X175620936Y-117341596D01*
X175600341Y-117576999D01*
X175600341Y-117577000D01*
X175620936Y-117812403D01*
X175620938Y-117812413D01*
X175682094Y-118040655D01*
X175682096Y-118040659D01*
X175682097Y-118040663D01*
X175752367Y-118191357D01*
X175781965Y-118254830D01*
X175781967Y-118254834D01*
X175874064Y-118386361D01*
X175917501Y-118448396D01*
X175917506Y-118448402D01*
X176084597Y-118615493D01*
X176084603Y-118615498D01*
X176117258Y-118638363D01*
X176229367Y-118716863D01*
X176270594Y-118745730D01*
X176314219Y-118800307D01*
X176321413Y-118869805D01*
X176289890Y-118932160D01*
X176270595Y-118948880D01*
X176084922Y-119078890D01*
X176084920Y-119078891D01*
X175917891Y-119245920D01*
X175917886Y-119245926D01*
X175782400Y-119439420D01*
X175782399Y-119439422D01*
X175682570Y-119653507D01*
X175682567Y-119653513D01*
X175625364Y-119866999D01*
X175625364Y-119867000D01*
X176522314Y-119867000D01*
X176496507Y-119907156D01*
X176456000Y-120045111D01*
X176456000Y-120188889D01*
X176496507Y-120326844D01*
X176522314Y-120367000D01*
X175625364Y-120367000D01*
X175682567Y-120580486D01*
X175682570Y-120580492D01*
X175782399Y-120794578D01*
X175917894Y-120988082D01*
X176084917Y-121155105D01*
X176270595Y-121285119D01*
X176314219Y-121339696D01*
X176321412Y-121409195D01*
X176289890Y-121471549D01*
X176270595Y-121488269D01*
X176084594Y-121618508D01*
X175917505Y-121785597D01*
X175781965Y-121979169D01*
X175781964Y-121979171D01*
X175697351Y-122160624D01*
X175682721Y-122192000D01*
X175682098Y-122193335D01*
X175682094Y-122193344D01*
X175620938Y-122421586D01*
X175620936Y-122421596D01*
X175600341Y-122656999D01*
X175600341Y-122657000D01*
X175620936Y-122892403D01*
X175620938Y-122892413D01*
X175682094Y-123120655D01*
X175682096Y-123120659D01*
X175682097Y-123120663D01*
X175751379Y-123269238D01*
X175781965Y-123334830D01*
X175781967Y-123334834D01*
X175863925Y-123451881D01*
X175917501Y-123528396D01*
X175917506Y-123528402D01*
X176084597Y-123695493D01*
X176084603Y-123695498D01*
X176270158Y-123825425D01*
X176313783Y-123880002D01*
X176320977Y-123949500D01*
X176289454Y-124011855D01*
X176270158Y-124028575D01*
X176084597Y-124158505D01*
X175917505Y-124325597D01*
X175781965Y-124519169D01*
X175781964Y-124519171D01*
X175682098Y-124733335D01*
X175682094Y-124733344D01*
X175620938Y-124961586D01*
X175620936Y-124961596D01*
X175600341Y-125196999D01*
X175600341Y-125197000D01*
X175620936Y-125432403D01*
X175620938Y-125432413D01*
X175682094Y-125660655D01*
X175682096Y-125660659D01*
X175682097Y-125660663D01*
X175772817Y-125855212D01*
X175781965Y-125874830D01*
X175781967Y-125874834D01*
X175874064Y-126006361D01*
X175917501Y-126068396D01*
X175917506Y-126068402D01*
X176084597Y-126235493D01*
X176084603Y-126235498D01*
X176270158Y-126365425D01*
X176313783Y-126420002D01*
X176320977Y-126489500D01*
X176289454Y-126551855D01*
X176270158Y-126568575D01*
X176084597Y-126698505D01*
X175917505Y-126865597D01*
X175781965Y-127059169D01*
X175781964Y-127059171D01*
X175688401Y-127259816D01*
X175682721Y-127272000D01*
X175682098Y-127273335D01*
X175682094Y-127273344D01*
X175620938Y-127501586D01*
X175620936Y-127501596D01*
X175600341Y-127736999D01*
X175600341Y-127737000D01*
X175620936Y-127972403D01*
X175620938Y-127972413D01*
X175682094Y-128200655D01*
X175682096Y-128200659D01*
X175682097Y-128200663D01*
X175748695Y-128343482D01*
X175781965Y-128414830D01*
X175781967Y-128414834D01*
X175874064Y-128546361D01*
X175917505Y-128608401D01*
X176084599Y-128775495D01*
X176168667Y-128834360D01*
X176278165Y-128911032D01*
X176278167Y-128911033D01*
X176278170Y-128911035D01*
X176492337Y-129010903D01*
X176720592Y-129072063D01*
X176908918Y-129088539D01*
X176955999Y-129092659D01*
X176956000Y-129092659D01*
X176956001Y-129092659D01*
X176995234Y-129089226D01*
X177191408Y-129072063D01*
X177419663Y-129010903D01*
X177633830Y-128911035D01*
X177827401Y-128775495D01*
X177994495Y-128608401D01*
X178016348Y-128577192D01*
X178024425Y-128565657D01*
X178079002Y-128522032D01*
X178148500Y-128514838D01*
X178210855Y-128546361D01*
X178246269Y-128606591D01*
X178250000Y-128636780D01*
X178250000Y-129698638D01*
X178230315Y-129765677D01*
X178213681Y-129786319D01*
X175036319Y-132963681D01*
X174974996Y-132997166D01*
X174948638Y-133000000D01*
X139051362Y-133000000D01*
X138984323Y-132980315D01*
X138963681Y-132963681D01*
X136556001Y-130556001D01*
X140426532Y-130556001D01*
X140446364Y-130782686D01*
X140446366Y-130782697D01*
X140505258Y-131002488D01*
X140505261Y-131002497D01*
X140601431Y-131208732D01*
X140601432Y-131208734D01*
X140731954Y-131395141D01*
X140892858Y-131556045D01*
X140892861Y-131556047D01*
X141079266Y-131686568D01*
X141285504Y-131782739D01*
X141505308Y-131841635D01*
X141675214Y-131856499D01*
X141675215Y-131856500D01*
X141675216Y-131856500D01*
X141788785Y-131856500D01*
X141788785Y-131856499D01*
X141958692Y-131841635D01*
X142178496Y-131782739D01*
X142384734Y-131686568D01*
X142571139Y-131556047D01*
X142732047Y-131395139D01*
X142862568Y-131208734D01*
X142958739Y-131002496D01*
X143017635Y-130782692D01*
X143037468Y-130556001D01*
X171414532Y-130556001D01*
X171434364Y-130782686D01*
X171434366Y-130782697D01*
X171493258Y-131002488D01*
X171493261Y-131002497D01*
X171589431Y-131208732D01*
X171589432Y-131208734D01*
X171719954Y-131395141D01*
X171880858Y-131556045D01*
X171880861Y-131556047D01*
X172067266Y-131686568D01*
X172273504Y-131782739D01*
X172493308Y-131841635D01*
X172663214Y-131856499D01*
X172663215Y-131856500D01*
X172663216Y-131856500D01*
X172776785Y-131856500D01*
X172776785Y-131856499D01*
X172946692Y-131841635D01*
X173166496Y-131782739D01*
X173372734Y-131686568D01*
X173559139Y-131556047D01*
X173720047Y-131395139D01*
X173850568Y-131208734D01*
X173946739Y-131002496D01*
X174005635Y-130782692D01*
X174025468Y-130556000D01*
X174005635Y-130329308D01*
X173946739Y-130109504D01*
X173850568Y-129903266D01*
X173720047Y-129716861D01*
X173720045Y-129716858D01*
X173559141Y-129555954D01*
X173372734Y-129425432D01*
X173372732Y-129425431D01*
X173166497Y-129329261D01*
X173166488Y-129329258D01*
X172946697Y-129270366D01*
X172946687Y-129270364D01*
X172776785Y-129255500D01*
X172776784Y-129255500D01*
X172663216Y-129255500D01*
X172663215Y-129255500D01*
X172493312Y-129270364D01*
X172493302Y-129270366D01*
X172273511Y-129329258D01*
X172273502Y-129329261D01*
X172067267Y-129425431D01*
X172067265Y-129425432D01*
X171880858Y-129555954D01*
X171719954Y-129716858D01*
X171589432Y-129903265D01*
X171589431Y-129903267D01*
X171493261Y-130109502D01*
X171493258Y-130109511D01*
X171434366Y-130329302D01*
X171434364Y-130329313D01*
X171414532Y-130555998D01*
X171414532Y-130556001D01*
X143037468Y-130556001D01*
X143037468Y-130556000D01*
X143017635Y-130329308D01*
X142958739Y-130109504D01*
X142862568Y-129903266D01*
X142732047Y-129716861D01*
X142732045Y-129716858D01*
X142571141Y-129555954D01*
X142384734Y-129425432D01*
X142384732Y-129425431D01*
X142178497Y-129329261D01*
X142178488Y-129329258D01*
X141958697Y-129270366D01*
X141958687Y-129270364D01*
X141788785Y-129255500D01*
X141788784Y-129255500D01*
X141675216Y-129255500D01*
X141675215Y-129255500D01*
X141505312Y-129270364D01*
X141505302Y-129270366D01*
X141285511Y-129329258D01*
X141285502Y-129329261D01*
X141079267Y-129425431D01*
X141079265Y-129425432D01*
X140892858Y-129555954D01*
X140731954Y-129716858D01*
X140601432Y-129903265D01*
X140601431Y-129903267D01*
X140505261Y-130109502D01*
X140505258Y-130109511D01*
X140446366Y-130329302D01*
X140446364Y-130329313D01*
X140426532Y-130555998D01*
X140426532Y-130556001D01*
X136556001Y-130556001D01*
X135786319Y-129786319D01*
X135752834Y-129724996D01*
X135750000Y-129698638D01*
X135750000Y-127593000D01*
X136225155Y-127593000D01*
X136229097Y-127622113D01*
X136229098Y-127622117D01*
X136298590Y-127835992D01*
X136405151Y-128034015D01*
X136405153Y-128034018D01*
X136545361Y-128209834D01*
X136714705Y-128357784D01*
X136714713Y-128357790D01*
X136907750Y-128473126D01*
X136907756Y-128473128D01*
X137118297Y-128552147D01*
X137339557Y-128592300D01*
X137951300Y-128592300D01*
X137951300Y-127868000D01*
X138451300Y-127868000D01*
X138451300Y-128592300D01*
X139006703Y-128592300D01*
X139006706Y-128592299D01*
X139174573Y-128577192D01*
X139391337Y-128517369D01*
X139391350Y-128517364D01*
X139593948Y-128419798D01*
X139593956Y-128419794D01*
X139775879Y-128287619D01*
X139775887Y-128287613D01*
X139931286Y-128125078D01*
X140055174Y-127937397D01*
X140143557Y-127730613D01*
X140143559Y-127730607D01*
X140174968Y-127593000D01*
X139417449Y-127593000D01*
X139421822Y-127586805D01*
X139470152Y-127450819D01*
X139480001Y-127306836D01*
X139450638Y-127165535D01*
X139413054Y-127093000D01*
X140177445Y-127093000D01*
X140173502Y-127063886D01*
X140173501Y-127063882D01*
X140104009Y-126850007D01*
X140093781Y-126831000D01*
X152443001Y-126831000D01*
X152443001Y-126867654D01*
X152453319Y-126968652D01*
X152507546Y-127132300D01*
X152507551Y-127132311D01*
X152598052Y-127279034D01*
X152598055Y-127279038D01*
X152719961Y-127400944D01*
X152719965Y-127400947D01*
X152866688Y-127491448D01*
X152866699Y-127491453D01*
X153030347Y-127545680D01*
X153131351Y-127555999D01*
X153230500Y-127555998D01*
X153230500Y-126831000D01*
X152443001Y-126831000D01*
X140093781Y-126831000D01*
X139997448Y-126651984D01*
X139997446Y-126651981D01*
X139857238Y-126476165D01*
X139691082Y-126331000D01*
X152443000Y-126331000D01*
X153230500Y-126331000D01*
X153230500Y-125605999D01*
X153131360Y-125606000D01*
X153131344Y-125606001D01*
X153030347Y-125616319D01*
X152866699Y-125670546D01*
X152866688Y-125670551D01*
X152719965Y-125761052D01*
X152719961Y-125761055D01*
X152598055Y-125882961D01*
X152598052Y-125882965D01*
X152507551Y-126029688D01*
X152507546Y-126029699D01*
X152453319Y-126193347D01*
X152443000Y-126294345D01*
X152443000Y-126331000D01*
X139691082Y-126331000D01*
X139687894Y-126328215D01*
X139687886Y-126328208D01*
X139603095Y-126277548D01*
X139555641Y-126226265D01*
X139543447Y-126157468D01*
X139570382Y-126092999D01*
X139627897Y-126053327D01*
X139666695Y-126047101D01*
X140440500Y-126047101D01*
X140440500Y-125251001D01*
X140940500Y-125251001D01*
X140940500Y-126047101D01*
X141741628Y-126047101D01*
X141741644Y-126047100D01*
X141801172Y-126040699D01*
X141801179Y-126040697D01*
X141935886Y-125990455D01*
X141935893Y-125990451D01*
X142050987Y-125904291D01*
X142050990Y-125904288D01*
X142137150Y-125789194D01*
X142137154Y-125789187D01*
X142187396Y-125654480D01*
X142187398Y-125654473D01*
X142193799Y-125594945D01*
X142193800Y-125594928D01*
X142193800Y-125251001D01*
X140940500Y-125251001D01*
X140440500Y-125251001D01*
X139187200Y-125251001D01*
X139187200Y-125594945D01*
X139193601Y-125654473D01*
X139193603Y-125654480D01*
X139243845Y-125789187D01*
X139243849Y-125789194D01*
X139330009Y-125904288D01*
X139336282Y-125910561D01*
X139334971Y-125911871D01*
X139370257Y-125958998D01*
X139375248Y-126028689D01*
X139341768Y-126090015D01*
X139280448Y-126123506D01*
X139231939Y-126124349D01*
X139063044Y-126093700D01*
X138451300Y-126093700D01*
X138451300Y-126818000D01*
X137951300Y-126818000D01*
X137951300Y-126093700D01*
X137395893Y-126093700D01*
X137228026Y-126108807D01*
X137011262Y-126168630D01*
X137011249Y-126168635D01*
X136808651Y-126266201D01*
X136808643Y-126266205D01*
X136626720Y-126398380D01*
X136626712Y-126398386D01*
X136471313Y-126560921D01*
X136347425Y-126748602D01*
X136259042Y-126955386D01*
X136259040Y-126955392D01*
X136227632Y-127092999D01*
X136227632Y-127093000D01*
X136985151Y-127093000D01*
X136980778Y-127099195D01*
X136932448Y-127235181D01*
X136922599Y-127379164D01*
X136951962Y-127520465D01*
X136989546Y-127593000D01*
X136225155Y-127593000D01*
X135750000Y-127593000D01*
X135750000Y-124751001D01*
X139187200Y-124751001D01*
X140440500Y-124751001D01*
X140440500Y-123954901D01*
X140940500Y-123954901D01*
X140940500Y-124751001D01*
X142193800Y-124751001D01*
X142193800Y-124407073D01*
X142193799Y-124407056D01*
X142187398Y-124347528D01*
X142187396Y-124347521D01*
X142137154Y-124212814D01*
X142137150Y-124212807D01*
X142050990Y-124097713D01*
X142050987Y-124097710D01*
X141935893Y-124011550D01*
X141935886Y-124011546D01*
X141801179Y-123961304D01*
X141801172Y-123961302D01*
X141741644Y-123954901D01*
X140940500Y-123954901D01*
X140440500Y-123954901D01*
X139639355Y-123954901D01*
X139579827Y-123961302D01*
X139579820Y-123961304D01*
X139445113Y-124011546D01*
X139445106Y-124011550D01*
X139330012Y-124097710D01*
X139330009Y-124097713D01*
X139243849Y-124212807D01*
X139243845Y-124212814D01*
X139193603Y-124347521D01*
X139193601Y-124347528D01*
X139187200Y-124407056D01*
X139187200Y-124751001D01*
X135750000Y-124751001D01*
X135750000Y-123799702D01*
X137399659Y-123799702D01*
X137419757Y-123978079D01*
X137479046Y-124147520D01*
X137574551Y-124299514D01*
X137701485Y-124426448D01*
X137849048Y-124519169D01*
X137853481Y-124521954D01*
X138022918Y-124581242D01*
X138022919Y-124581242D01*
X138022923Y-124581243D01*
X138112976Y-124591389D01*
X138156554Y-124596299D01*
X138156557Y-124596300D01*
X138156560Y-124596300D01*
X138246043Y-124596300D01*
X138246044Y-124596299D01*
X138317929Y-124588200D01*
X138379676Y-124581243D01*
X138379678Y-124581242D01*
X138379682Y-124581242D01*
X138549119Y-124521954D01*
X138701115Y-124426448D01*
X138828048Y-124299515D01*
X138923554Y-124147519D01*
X138982842Y-123978082D01*
X138999410Y-123831035D01*
X139002941Y-123799702D01*
X139002941Y-123799697D01*
X138983673Y-123628697D01*
X138982842Y-123621318D01*
X138923554Y-123451881D01*
X138917365Y-123442032D01*
X138828048Y-123299885D01*
X138701114Y-123172951D01*
X138549120Y-123077446D01*
X138379680Y-123018157D01*
X138379676Y-123018156D01*
X138246046Y-123003100D01*
X138246040Y-123003100D01*
X138156560Y-123003100D01*
X138156553Y-123003100D01*
X138022923Y-123018156D01*
X138022919Y-123018157D01*
X137853479Y-123077446D01*
X137701485Y-123172951D01*
X137574551Y-123299885D01*
X137479046Y-123451879D01*
X137419757Y-123621320D01*
X137399659Y-123799697D01*
X137399659Y-123799702D01*
X135750000Y-123799702D01*
X135750000Y-119202302D01*
X137399659Y-119202302D01*
X137419757Y-119380679D01*
X137479046Y-119550120D01*
X137574551Y-119702114D01*
X137701485Y-119829048D01*
X137840338Y-119916296D01*
X137853481Y-119924554D01*
X138022918Y-119983842D01*
X138022919Y-119983842D01*
X138022923Y-119983843D01*
X138112976Y-119993989D01*
X138156554Y-119998899D01*
X138156557Y-119998900D01*
X138156560Y-119998900D01*
X138246043Y-119998900D01*
X138246044Y-119998899D01*
X138316154Y-119991000D01*
X138379676Y-119983843D01*
X138379678Y-119983842D01*
X138379682Y-119983842D01*
X138549119Y-119924554D01*
X138701115Y-119829048D01*
X138828048Y-119702115D01*
X138923554Y-119550119D01*
X138982842Y-119380682D01*
X138998025Y-119245929D01*
X139002941Y-119202302D01*
X139002941Y-119202297D01*
X138982842Y-119023920D01*
X138982842Y-119023918D01*
X138923554Y-118854481D01*
X138882679Y-118789430D01*
X138828048Y-118702485D01*
X138701114Y-118575551D01*
X138549120Y-118480046D01*
X138379680Y-118420757D01*
X138379676Y-118420756D01*
X138246046Y-118405700D01*
X138246040Y-118405700D01*
X138156560Y-118405700D01*
X138156553Y-118405700D01*
X138022923Y-118420756D01*
X138022919Y-118420757D01*
X137853479Y-118480046D01*
X137701485Y-118575551D01*
X137574551Y-118702485D01*
X137479046Y-118854479D01*
X137419757Y-119023920D01*
X137399659Y-119202297D01*
X137399659Y-119202302D01*
X135750000Y-119202302D01*
X135750000Y-115909000D01*
X136225155Y-115909000D01*
X136229097Y-115938113D01*
X136229098Y-115938117D01*
X136298590Y-116151992D01*
X136405151Y-116350015D01*
X136405153Y-116350018D01*
X136545361Y-116525834D01*
X136714705Y-116673784D01*
X136714713Y-116673790D01*
X136907750Y-116789126D01*
X136907756Y-116789128D01*
X137118297Y-116868147D01*
X137339557Y-116908300D01*
X137951300Y-116908300D01*
X137951300Y-116184000D01*
X138451300Y-116184000D01*
X138451300Y-116908300D01*
X139006703Y-116908300D01*
X139006706Y-116908299D01*
X139174573Y-116893192D01*
X139219286Y-116880852D01*
X139289146Y-116881992D01*
X139347300Y-116920720D01*
X139375284Y-116984741D01*
X139364214Y-117053728D01*
X139334651Y-117089808D01*
X139335925Y-117091082D01*
X139329652Y-117097354D01*
X139243406Y-117212563D01*
X139243402Y-117212570D01*
X139193108Y-117347416D01*
X139186701Y-117407015D01*
X139186700Y-117407034D01*
X139186700Y-118594969D01*
X139186701Y-118594975D01*
X139193108Y-118654582D01*
X139243402Y-118789427D01*
X139243406Y-118789434D01*
X139329652Y-118904643D01*
X139329655Y-118904646D01*
X139444864Y-118990892D01*
X139444871Y-118990896D01*
X139579717Y-119041190D01*
X139579716Y-119041190D01*
X139586644Y-119041934D01*
X139639327Y-119047599D01*
X141741672Y-119047598D01*
X141801283Y-119041190D01*
X141936131Y-118990895D01*
X142051346Y-118904645D01*
X142137596Y-118789430D01*
X142143098Y-118774679D01*
X142143849Y-118772666D01*
X142185720Y-118716732D01*
X142251184Y-118692315D01*
X142260031Y-118691999D01*
X143545875Y-118691999D01*
X143553362Y-118692225D01*
X143612527Y-118695804D01*
X143612527Y-118695803D01*
X143612529Y-118695804D01*
X143670837Y-118685118D01*
X143678231Y-118683992D01*
X143737083Y-118676847D01*
X143746289Y-118673355D01*
X143767904Y-118667329D01*
X143777586Y-118665556D01*
X143831662Y-118641217D01*
X143838518Y-118638377D01*
X143893983Y-118617343D01*
X143902081Y-118611753D01*
X143921640Y-118600721D01*
X143930606Y-118596687D01*
X143977267Y-118560129D01*
X143983299Y-118555691D01*
X143985397Y-118554243D01*
X144032084Y-118522019D01*
X144071418Y-118477618D01*
X144076488Y-118472232D01*
X144255904Y-118292816D01*
X144317227Y-118259334D01*
X144343584Y-118256500D01*
X144808843Y-118256500D01*
X144808848Y-118256500D01*
X144910775Y-118246087D01*
X145075925Y-118191362D01*
X145224003Y-118100026D01*
X145347026Y-117977003D01*
X145347458Y-117976301D01*
X145347881Y-117975921D01*
X145351507Y-117971336D01*
X145352290Y-117971955D01*
X145399402Y-117929575D01*
X145468364Y-117918349D01*
X145532448Y-117946188D01*
X145554342Y-117971455D01*
X145554493Y-117971336D01*
X145557143Y-117974687D01*
X145558540Y-117976299D01*
X145558972Y-117976999D01*
X145558975Y-117977004D01*
X145681996Y-118100025D01*
X145682000Y-118100028D01*
X145830066Y-118191357D01*
X145830069Y-118191358D01*
X145830075Y-118191362D01*
X145995225Y-118246087D01*
X146097152Y-118256500D01*
X146097157Y-118256500D01*
X146683843Y-118256500D01*
X146683848Y-118256500D01*
X146785775Y-118246087D01*
X146950925Y-118191362D01*
X147099003Y-118100026D01*
X147222026Y-117977003D01*
X147313362Y-117828925D01*
X147313365Y-117828915D01*
X147316412Y-117822382D01*
X147318368Y-117823294D01*
X147352119Y-117774549D01*
X147416635Y-117747728D01*
X147430050Y-117747000D01*
X147813000Y-117747000D01*
X147880039Y-117766685D01*
X147925794Y-117819489D01*
X147937000Y-117871000D01*
X147937000Y-118279903D01*
X147917315Y-118346942D01*
X147864511Y-118392697D01*
X147852006Y-118397608D01*
X147833668Y-118403684D01*
X147684342Y-118495789D01*
X147560289Y-118619842D01*
X147468187Y-118769163D01*
X147468185Y-118769168D01*
X147457867Y-118800307D01*
X147413001Y-118935703D01*
X147413001Y-118935704D01*
X147413000Y-118935704D01*
X147402500Y-119038483D01*
X147402500Y-119813501D01*
X147402501Y-119813519D01*
X147413000Y-119916296D01*
X147413001Y-119916299D01*
X147455686Y-120045111D01*
X147468186Y-120082834D01*
X147548996Y-120213849D01*
X147560289Y-120232157D01*
X147684346Y-120356214D01*
X147687182Y-120357963D01*
X147688717Y-120359670D01*
X147690011Y-120360693D01*
X147689836Y-120360914D01*
X147733905Y-120409911D01*
X147745126Y-120478874D01*
X147717282Y-120542956D01*
X147687182Y-120569037D01*
X147684346Y-120570785D01*
X147560289Y-120694842D01*
X147468187Y-120844163D01*
X147468185Y-120844168D01*
X147441239Y-120925487D01*
X147413001Y-121010703D01*
X147413001Y-121010704D01*
X147413000Y-121010704D01*
X147402500Y-121113483D01*
X147402500Y-121888501D01*
X147402501Y-121888519D01*
X147413000Y-121991296D01*
X147413001Y-121991299D01*
X147468185Y-122157831D01*
X147468187Y-122157836D01*
X147492556Y-122197344D01*
X147560288Y-122307156D01*
X147684344Y-122431212D01*
X147740267Y-122465705D01*
X147786991Y-122517653D01*
X147798214Y-122586616D01*
X147770370Y-122650698D01*
X147762851Y-122658925D01*
X147133597Y-123288181D01*
X147072274Y-123321666D01*
X147045916Y-123324500D01*
X145703083Y-123324500D01*
X145636044Y-123304815D01*
X145615402Y-123288181D01*
X144648599Y-122321377D01*
X144619238Y-122274650D01*
X144603026Y-122228319D01*
X144575789Y-122150478D01*
X144569979Y-122141232D01*
X144503648Y-122035667D01*
X144479816Y-121997738D01*
X144352262Y-121870184D01*
X144321624Y-121850933D01*
X144199523Y-121774211D01*
X144029254Y-121714631D01*
X144029249Y-121714630D01*
X143850004Y-121694435D01*
X143849996Y-121694435D01*
X143670750Y-121714630D01*
X143670745Y-121714631D01*
X143500476Y-121774211D01*
X143473766Y-121790995D01*
X143407794Y-121810001D01*
X142260031Y-121810001D01*
X142192992Y-121790316D01*
X142147237Y-121737512D01*
X142143849Y-121729334D01*
X142137597Y-121712572D01*
X142137593Y-121712565D01*
X142051347Y-121597356D01*
X142045075Y-121591084D01*
X142046954Y-121589204D01*
X142013364Y-121544333D01*
X142008380Y-121474641D01*
X142041865Y-121413318D01*
X142047917Y-121408073D01*
X142051342Y-121404647D01*
X142051346Y-121404645D01*
X142137596Y-121289430D01*
X142141563Y-121278795D01*
X142143849Y-121272666D01*
X142185720Y-121216732D01*
X142251184Y-121192315D01*
X142260031Y-121191999D01*
X144115415Y-121191999D01*
X144182454Y-121211684D01*
X144203096Y-121228318D01*
X144654400Y-121679622D01*
X144683760Y-121726348D01*
X144727210Y-121850520D01*
X144727212Y-121850524D01*
X144796128Y-121960203D01*
X144823184Y-122003262D01*
X144950738Y-122130816D01*
X145033238Y-122182654D01*
X145056616Y-122197344D01*
X145103478Y-122226789D01*
X145234587Y-122272666D01*
X145273745Y-122286368D01*
X145273750Y-122286369D01*
X145452996Y-122306565D01*
X145453000Y-122306565D01*
X145453004Y-122306565D01*
X145632249Y-122286369D01*
X145632252Y-122286368D01*
X145632255Y-122286368D01*
X145802522Y-122226789D01*
X145955262Y-122130816D01*
X146082816Y-122003262D01*
X146178789Y-121850522D01*
X146238368Y-121680255D01*
X146238369Y-121680249D01*
X146258565Y-121501003D01*
X146258565Y-121500996D01*
X146238369Y-121321750D01*
X146238368Y-121321745D01*
X146231228Y-121301341D01*
X146178789Y-121151478D01*
X146165643Y-121130557D01*
X146106111Y-121035812D01*
X146082816Y-120998738D01*
X145955262Y-120871184D01*
X145907799Y-120841361D01*
X145802524Y-120775212D01*
X145802520Y-120775210D01*
X145678348Y-120731760D01*
X145631622Y-120702400D01*
X144959026Y-120029804D01*
X144953892Y-120024350D01*
X144914582Y-119979979D01*
X144865791Y-119946301D01*
X144859759Y-119941862D01*
X144813107Y-119905313D01*
X144813098Y-119905307D01*
X144804133Y-119901273D01*
X144784585Y-119890249D01*
X144776481Y-119884655D01*
X144776477Y-119884652D01*
X144721060Y-119863635D01*
X144714143Y-119860771D01*
X144660080Y-119836440D01*
X144660081Y-119836440D01*
X144650394Y-119834665D01*
X144628791Y-119828643D01*
X144619581Y-119825151D01*
X144560734Y-119818005D01*
X144553332Y-119816878D01*
X144495029Y-119806194D01*
X144495024Y-119806194D01*
X144435860Y-119809773D01*
X144428373Y-119809999D01*
X142260031Y-119809999D01*
X142192992Y-119790314D01*
X142147237Y-119737510D01*
X142143849Y-119729332D01*
X142137597Y-119712570D01*
X142137593Y-119712563D01*
X142051347Y-119597354D01*
X142051344Y-119597351D01*
X141936135Y-119511105D01*
X141936128Y-119511101D01*
X141801282Y-119460807D01*
X141801283Y-119460807D01*
X141741683Y-119454400D01*
X141741681Y-119454399D01*
X141741673Y-119454399D01*
X141741664Y-119454399D01*
X139639329Y-119454399D01*
X139639323Y-119454400D01*
X139579716Y-119460807D01*
X139444871Y-119511101D01*
X139444864Y-119511105D01*
X139329655Y-119597351D01*
X139329652Y-119597354D01*
X139243406Y-119712563D01*
X139243402Y-119712570D01*
X139193108Y-119847416D01*
X139186701Y-119907015D01*
X139186700Y-119907034D01*
X139186700Y-121094969D01*
X139186701Y-121094975D01*
X139193108Y-121154582D01*
X139243402Y-121289427D01*
X139243406Y-121289434D01*
X139329652Y-121404643D01*
X139335925Y-121410916D01*
X139334045Y-121412795D01*
X139367636Y-121457667D01*
X139372620Y-121527359D01*
X139339135Y-121588682D01*
X139333082Y-121593926D01*
X139329652Y-121597356D01*
X139243406Y-121712565D01*
X139243402Y-121712572D01*
X139193108Y-121847418D01*
X139186701Y-121907017D01*
X139186700Y-121907036D01*
X139186700Y-123094971D01*
X139186701Y-123094977D01*
X139193108Y-123154584D01*
X139243402Y-123289429D01*
X139243406Y-123289436D01*
X139329652Y-123404645D01*
X139329655Y-123404648D01*
X139444864Y-123490894D01*
X139444871Y-123490898D01*
X139579717Y-123541192D01*
X139579716Y-123541192D01*
X139586644Y-123541936D01*
X139639327Y-123547601D01*
X141741672Y-123547600D01*
X141801283Y-123541192D01*
X141936131Y-123490897D01*
X142051346Y-123404647D01*
X142137596Y-123289432D01*
X142138791Y-123286226D01*
X142143849Y-123272668D01*
X142185720Y-123216734D01*
X142251184Y-123192317D01*
X142260031Y-123192001D01*
X143410980Y-123192001D01*
X143476952Y-123211007D01*
X143486067Y-123216734D01*
X143500478Y-123225789D01*
X143624651Y-123269238D01*
X143671377Y-123298599D01*
X144859464Y-124486685D01*
X144864598Y-124492138D01*
X144903917Y-124536520D01*
X144952719Y-124570205D01*
X144958738Y-124574634D01*
X145005395Y-124611188D01*
X145014366Y-124615225D01*
X145033911Y-124626248D01*
X145042018Y-124631844D01*
X145042019Y-124631844D01*
X145042020Y-124631845D01*
X145071830Y-124643150D01*
X145097438Y-124652862D01*
X145104348Y-124655724D01*
X145158416Y-124680058D01*
X145168101Y-124681832D01*
X145189723Y-124687860D01*
X145198918Y-124691348D01*
X145257769Y-124698494D01*
X145265136Y-124699614D01*
X145323472Y-124710305D01*
X145382639Y-124706726D01*
X145390126Y-124706500D01*
X147358874Y-124706500D01*
X147366361Y-124706726D01*
X147425526Y-124710305D01*
X147425526Y-124710304D01*
X147425528Y-124710305D01*
X147483836Y-124699619D01*
X147491230Y-124698493D01*
X147550082Y-124691348D01*
X147559288Y-124687856D01*
X147580903Y-124681830D01*
X147590585Y-124680057D01*
X147644661Y-124655718D01*
X147651517Y-124652878D01*
X147706982Y-124631844D01*
X147715080Y-124626254D01*
X147734639Y-124615222D01*
X147743605Y-124611188D01*
X147790266Y-124574630D01*
X147796298Y-124570192D01*
X147845083Y-124536520D01*
X147884417Y-124492119D01*
X147889503Y-124486717D01*
X149062719Y-123313500D01*
X152308001Y-123313500D01*
X152308001Y-123525986D01*
X152318494Y-123628697D01*
X152373641Y-123795119D01*
X152373643Y-123795124D01*
X152465684Y-123944345D01*
X152589654Y-124068315D01*
X152738875Y-124160356D01*
X152738880Y-124160358D01*
X152905302Y-124215505D01*
X152905309Y-124215506D01*
X153008019Y-124225999D01*
X153457999Y-124225999D01*
X153458000Y-124225998D01*
X153458000Y-123313500D01*
X153958000Y-123313500D01*
X153958000Y-124225999D01*
X154407972Y-124225999D01*
X154407986Y-124225998D01*
X154510697Y-124215505D01*
X154677119Y-124160358D01*
X154677124Y-124160356D01*
X154826345Y-124068315D01*
X154950315Y-123944345D01*
X155042356Y-123795124D01*
X155042358Y-123795119D01*
X155097505Y-123628697D01*
X155097506Y-123628690D01*
X155107999Y-123525986D01*
X155108000Y-123525973D01*
X155108000Y-123313500D01*
X153958000Y-123313500D01*
X153458000Y-123313500D01*
X152308001Y-123313500D01*
X149062719Y-123313500D01*
X149099209Y-123277010D01*
X149104611Y-123271924D01*
X149149020Y-123232583D01*
X149182718Y-123183760D01*
X149187108Y-123177793D01*
X149223688Y-123131105D01*
X149227722Y-123122139D01*
X149238754Y-123102580D01*
X149244342Y-123094485D01*
X149244342Y-123094484D01*
X149244344Y-123094482D01*
X149265378Y-123039017D01*
X149268218Y-123032161D01*
X149292557Y-122978085D01*
X149294330Y-122968403D01*
X149300356Y-122946788D01*
X149303848Y-122937582D01*
X149310993Y-122878730D01*
X149312119Y-122871336D01*
X149322718Y-122813500D01*
X152308000Y-122813500D01*
X153458000Y-122813500D01*
X153458000Y-121901000D01*
X153958000Y-121901000D01*
X153958000Y-122813500D01*
X155107999Y-122813500D01*
X155107999Y-122601028D01*
X155107998Y-122601013D01*
X155097505Y-122498302D01*
X155042358Y-122331880D01*
X155042356Y-122331875D01*
X154950315Y-122182654D01*
X154826345Y-122058684D01*
X154677124Y-121966643D01*
X154677119Y-121966641D01*
X154510697Y-121911494D01*
X154510690Y-121911493D01*
X154407986Y-121901000D01*
X153958000Y-121901000D01*
X153458000Y-121901000D01*
X153008028Y-121901000D01*
X153008012Y-121901001D01*
X152905302Y-121911494D01*
X152738880Y-121966641D01*
X152738875Y-121966643D01*
X152589654Y-122058684D01*
X152465684Y-122182654D01*
X152373643Y-122331875D01*
X152373641Y-122331880D01*
X152318494Y-122498302D01*
X152318493Y-122498309D01*
X152308000Y-122601013D01*
X152308000Y-122813500D01*
X149322718Y-122813500D01*
X149322804Y-122813033D01*
X149322805Y-122813026D01*
X149319226Y-122753860D01*
X149319000Y-122746373D01*
X149319000Y-122647096D01*
X149338685Y-122580057D01*
X149391489Y-122534302D01*
X149403993Y-122529391D01*
X149422334Y-122523314D01*
X149571656Y-122431212D01*
X149695712Y-122307156D01*
X149787814Y-122157834D01*
X149842999Y-121991297D01*
X149853500Y-121888509D01*
X149853499Y-121113492D01*
X149851607Y-121094975D01*
X149842999Y-121010703D01*
X149842998Y-121010700D01*
X149830758Y-120973763D01*
X149787814Y-120844166D01*
X149695712Y-120694844D01*
X149571656Y-120570788D01*
X149568819Y-120569038D01*
X149567283Y-120567330D01*
X149565989Y-120566307D01*
X149566163Y-120566085D01*
X149522096Y-120517094D01*
X149510872Y-120448132D01*
X149538713Y-120384049D01*
X149568817Y-120357962D01*
X149571656Y-120356212D01*
X149695712Y-120232156D01*
X149787814Y-120082834D01*
X149842999Y-119916297D01*
X149853500Y-119813509D01*
X149853499Y-119038492D01*
X149852010Y-119023920D01*
X149842999Y-118935703D01*
X149842998Y-118935700D01*
X149827822Y-118889903D01*
X149787814Y-118769166D01*
X149695712Y-118619844D01*
X149571656Y-118495788D01*
X149422334Y-118403686D01*
X149422332Y-118403685D01*
X149422330Y-118403684D01*
X149422331Y-118403684D01*
X149403994Y-118397608D01*
X149346550Y-118357835D01*
X149319728Y-118293318D01*
X149319000Y-118279903D01*
X149319000Y-117871000D01*
X149338685Y-117803961D01*
X149391489Y-117758206D01*
X149443000Y-117747000D01*
X151362387Y-117747000D01*
X151428359Y-117766006D01*
X151429440Y-117766685D01*
X151453478Y-117781789D01*
X151577651Y-117825238D01*
X151624377Y-117854599D01*
X152131810Y-118362032D01*
X152558524Y-118788745D01*
X152592009Y-118850068D01*
X152587025Y-118919759D01*
X152558525Y-118964107D01*
X152465287Y-119057345D01*
X152373187Y-119206663D01*
X152373185Y-119206668D01*
X152352469Y-119269185D01*
X152318001Y-119373203D01*
X152318001Y-119373204D01*
X152318000Y-119373204D01*
X152307500Y-119475983D01*
X152307500Y-120401001D01*
X152307501Y-120401019D01*
X152318000Y-120503796D01*
X152318001Y-120503799D01*
X152373185Y-120670331D01*
X152373187Y-120670336D01*
X152388304Y-120694844D01*
X152465288Y-120819656D01*
X152589344Y-120943712D01*
X152738666Y-121035814D01*
X152905203Y-121090999D01*
X153007991Y-121101500D01*
X154408008Y-121101499D01*
X154510797Y-121090999D01*
X154677334Y-121035814D01*
X154826656Y-120943712D01*
X154950712Y-120819656D01*
X155042814Y-120670334D01*
X155097999Y-120503797D01*
X155108500Y-120401009D01*
X155108499Y-120084136D01*
X155128183Y-120017099D01*
X155180987Y-119971344D01*
X155250146Y-119961400D01*
X155254821Y-119962164D01*
X155301972Y-119970805D01*
X155361139Y-119967226D01*
X155368626Y-119967000D01*
X155470967Y-119967000D01*
X155534087Y-119984267D01*
X155607602Y-120027744D01*
X155649224Y-120039836D01*
X155765426Y-120073597D01*
X155765429Y-120073597D01*
X155765431Y-120073598D01*
X155802306Y-120076500D01*
X155802314Y-120076500D01*
X156958686Y-120076500D01*
X156958694Y-120076500D01*
X156995569Y-120073598D01*
X156995571Y-120073597D01*
X156995573Y-120073597D01*
X157037191Y-120061505D01*
X157153398Y-120027744D01*
X157294865Y-119944081D01*
X157411081Y-119827865D01*
X157411267Y-119827549D01*
X157411477Y-119827353D01*
X157415861Y-119821702D01*
X157416772Y-119822409D01*
X157462336Y-119779866D01*
X157531077Y-119767362D01*
X157595667Y-119794006D01*
X157619855Y-119821921D01*
X157620139Y-119821702D01*
X157624179Y-119826911D01*
X157624732Y-119827548D01*
X157624919Y-119827865D01*
X157624921Y-119827867D01*
X157624923Y-119827870D01*
X157741129Y-119944076D01*
X157741133Y-119944079D01*
X157741135Y-119944081D01*
X157868558Y-120019438D01*
X157916241Y-120070507D01*
X157928745Y-120139248D01*
X157902100Y-120203838D01*
X157849410Y-120242111D01*
X157829527Y-120249652D01*
X157829523Y-120249654D01*
X157829518Y-120249656D01*
X157829513Y-120249659D01*
X157829510Y-120249661D01*
X157821410Y-120255251D01*
X157801881Y-120266266D01*
X157792900Y-120270308D01*
X157792897Y-120270310D01*
X157792895Y-120270311D01*
X157792894Y-120270312D01*
X157789421Y-120273033D01*
X157746237Y-120306864D01*
X157740211Y-120311297D01*
X157691416Y-120344980D01*
X157691414Y-120344982D01*
X157652104Y-120389352D01*
X157646972Y-120394804D01*
X156411804Y-121629972D01*
X156406352Y-121635104D01*
X156361986Y-121674410D01*
X156361976Y-121674421D01*
X156328298Y-121723212D01*
X156323861Y-121729243D01*
X156287312Y-121775894D01*
X156287311Y-121775896D01*
X156283271Y-121784873D01*
X156272253Y-121804408D01*
X156266655Y-121812519D01*
X156245632Y-121867949D01*
X156242768Y-121874865D01*
X156218442Y-121928916D01*
X156216666Y-121938606D01*
X156210645Y-121960203D01*
X156207152Y-121969414D01*
X156207152Y-121969415D01*
X156200006Y-122028265D01*
X156198879Y-122035667D01*
X156188195Y-122093969D01*
X156188195Y-122093972D01*
X156191774Y-122153137D01*
X156192000Y-122160624D01*
X156192000Y-125686948D01*
X156172315Y-125753987D01*
X156119511Y-125799742D01*
X156050353Y-125809686D01*
X155986797Y-125780661D01*
X155980319Y-125774629D01*
X155966351Y-125760661D01*
X155966350Y-125760660D01*
X155874180Y-125703809D01*
X155819518Y-125670093D01*
X155819513Y-125670091D01*
X155791037Y-125660655D01*
X155655753Y-125615826D01*
X155655751Y-125615825D01*
X155554678Y-125605500D01*
X154856330Y-125605500D01*
X154856312Y-125605501D01*
X154755247Y-125615825D01*
X154591484Y-125670092D01*
X154591481Y-125670093D01*
X154444648Y-125760661D01*
X154430325Y-125774984D01*
X154369001Y-125808468D01*
X154299309Y-125803482D01*
X154254965Y-125774982D01*
X154241038Y-125761055D01*
X154241034Y-125761052D01*
X154094311Y-125670551D01*
X154094300Y-125670546D01*
X153930652Y-125616319D01*
X153829654Y-125606000D01*
X153730500Y-125606000D01*
X153730500Y-127555999D01*
X153829640Y-127555999D01*
X153829654Y-127555998D01*
X153930652Y-127545680D01*
X154094300Y-127491453D01*
X154094311Y-127491448D01*
X154241035Y-127400947D01*
X154254960Y-127387021D01*
X154316282Y-127353533D01*
X154385973Y-127358514D01*
X154430327Y-127387017D01*
X154444650Y-127401340D01*
X154591484Y-127491908D01*
X154755247Y-127546174D01*
X154856323Y-127556500D01*
X155554676Y-127556499D01*
X155554684Y-127556498D01*
X155554687Y-127556498D01*
X155610030Y-127550844D01*
X155655753Y-127546174D01*
X155819516Y-127491908D01*
X155966350Y-127401340D01*
X156059371Y-127308319D01*
X156120694Y-127274834D01*
X156147052Y-127272000D01*
X156442387Y-127272000D01*
X156508359Y-127291006D01*
X156509440Y-127291685D01*
X156533478Y-127306789D01*
X156667065Y-127353533D01*
X156703745Y-127366368D01*
X156703750Y-127366369D01*
X156882996Y-127386565D01*
X156883000Y-127386565D01*
X156883004Y-127386565D01*
X157062249Y-127366369D01*
X157062252Y-127366368D01*
X157062255Y-127366368D01*
X157232522Y-127306789D01*
X157256560Y-127291685D01*
X157257641Y-127291006D01*
X157323613Y-127272000D01*
X158069097Y-127272000D01*
X158111204Y-127272000D01*
X158746204Y-127272000D01*
X160513000Y-127272000D01*
X160580039Y-127291685D01*
X160625794Y-127344489D01*
X160637000Y-127396000D01*
X160637000Y-127826374D01*
X160636774Y-127833861D01*
X160633195Y-127893025D01*
X160633195Y-127893028D01*
X160643879Y-127951333D01*
X160645006Y-127958735D01*
X160652152Y-128017582D01*
X160655644Y-128026792D01*
X160661666Y-128048395D01*
X160663441Y-128058081D01*
X160687772Y-128112144D01*
X160690636Y-128119061D01*
X160711653Y-128174478D01*
X160711656Y-128174482D01*
X160717250Y-128182586D01*
X160728274Y-128202134D01*
X160732308Y-128211099D01*
X160732314Y-128211108D01*
X160768863Y-128257760D01*
X160773302Y-128263792D01*
X160806980Y-128312583D01*
X160851351Y-128351893D01*
X160856805Y-128357027D01*
X161092078Y-128592300D01*
X161296181Y-128796402D01*
X161329666Y-128857725D01*
X161332500Y-128884083D01*
X161332500Y-129407669D01*
X161332501Y-129407687D01*
X161342825Y-129508752D01*
X161374456Y-129604205D01*
X161397092Y-129672516D01*
X161487660Y-129819350D01*
X161609650Y-129941340D01*
X161756484Y-130031908D01*
X161920247Y-130086174D01*
X162021323Y-130096500D01*
X162719676Y-130096499D01*
X162719684Y-130096498D01*
X162719687Y-130096498D01*
X162775030Y-130090844D01*
X162820753Y-130086174D01*
X162984516Y-130031908D01*
X163131350Y-129941340D01*
X163145671Y-129927018D01*
X163206989Y-129893533D01*
X163276681Y-129898514D01*
X163321034Y-129927017D01*
X163334961Y-129940944D01*
X163334965Y-129940947D01*
X163481688Y-130031448D01*
X163481699Y-130031453D01*
X163645347Y-130085680D01*
X163746351Y-130095999D01*
X163845500Y-130095998D01*
X163845500Y-129371000D01*
X164345500Y-129371000D01*
X164345500Y-130095999D01*
X164444640Y-130095999D01*
X164444654Y-130095998D01*
X164545652Y-130085680D01*
X164709300Y-130031453D01*
X164709311Y-130031448D01*
X164856034Y-129940947D01*
X164856038Y-129940944D01*
X164977944Y-129819038D01*
X164977947Y-129819034D01*
X165068448Y-129672311D01*
X165068453Y-129672300D01*
X165122680Y-129508652D01*
X165132999Y-129407654D01*
X165133000Y-129407641D01*
X165133000Y-129371000D01*
X164345500Y-129371000D01*
X163845500Y-129371000D01*
X163845500Y-128146000D01*
X164345500Y-128146000D01*
X164345500Y-128871000D01*
X165132999Y-128871000D01*
X165132999Y-128834360D01*
X165132998Y-128834345D01*
X165122680Y-128733347D01*
X165068453Y-128569699D01*
X165068448Y-128569688D01*
X164977947Y-128422965D01*
X164977944Y-128422961D01*
X164856038Y-128301055D01*
X164856034Y-128301052D01*
X164709311Y-128210551D01*
X164709300Y-128210546D01*
X164545652Y-128156319D01*
X164444654Y-128146000D01*
X164345500Y-128146000D01*
X163845500Y-128146000D01*
X163845500Y-128145999D01*
X163746360Y-128146000D01*
X163746344Y-128146001D01*
X163645347Y-128156319D01*
X163481699Y-128210546D01*
X163481688Y-128210551D01*
X163334965Y-128301052D01*
X163321032Y-128314985D01*
X163259708Y-128348468D01*
X163190016Y-128343482D01*
X163145672Y-128314982D01*
X163131351Y-128300661D01*
X163131350Y-128300660D01*
X163040129Y-128244395D01*
X162984518Y-128210093D01*
X162984513Y-128210091D01*
X162956037Y-128200655D01*
X162820753Y-128155826D01*
X162820751Y-128155825D01*
X162719684Y-128145500D01*
X162719677Y-128145500D01*
X162651083Y-128145500D01*
X162584044Y-128125815D01*
X162563402Y-128109181D01*
X162055319Y-127601097D01*
X162021834Y-127539774D01*
X162019000Y-127513416D01*
X162019000Y-127021612D01*
X162038007Y-126955639D01*
X162053788Y-126930524D01*
X162053789Y-126930521D01*
X162097239Y-126806346D01*
X162126597Y-126759622D01*
X162232988Y-126653231D01*
X162294309Y-126619748D01*
X162364001Y-126624732D01*
X162419934Y-126666604D01*
X162443887Y-126727028D01*
X162447631Y-126760251D01*
X162447631Y-126760254D01*
X162507211Y-126930523D01*
X162574364Y-127037396D01*
X162603184Y-127083262D01*
X162730738Y-127210816D01*
X162769515Y-127235181D01*
X162858359Y-127291006D01*
X162883478Y-127306789D01*
X163017065Y-127353533D01*
X163053745Y-127366368D01*
X163053750Y-127366369D01*
X163232996Y-127386565D01*
X163233000Y-127386565D01*
X163233004Y-127386565D01*
X163412249Y-127366369D01*
X163412252Y-127366368D01*
X163412255Y-127366368D01*
X163582522Y-127306789D01*
X163735262Y-127210816D01*
X163780319Y-127165759D01*
X163841642Y-127132274D01*
X163911334Y-127137258D01*
X163955681Y-127165759D01*
X164000738Y-127210816D01*
X164039515Y-127235181D01*
X164128359Y-127291006D01*
X164153478Y-127306789D01*
X164287065Y-127353533D01*
X164323745Y-127366368D01*
X164323750Y-127366369D01*
X164502996Y-127386565D01*
X164503000Y-127386565D01*
X164503004Y-127386565D01*
X164682249Y-127366369D01*
X164682252Y-127366368D01*
X164682255Y-127366368D01*
X164852522Y-127306789D01*
X165005262Y-127210816D01*
X165050319Y-127165759D01*
X165111642Y-127132274D01*
X165181334Y-127137258D01*
X165225681Y-127165759D01*
X165270738Y-127210816D01*
X165309515Y-127235181D01*
X165398359Y-127291006D01*
X165423478Y-127306789D01*
X165557065Y-127353533D01*
X165593745Y-127366368D01*
X165593750Y-127366369D01*
X165772996Y-127386565D01*
X165773000Y-127386565D01*
X165773004Y-127386565D01*
X165952249Y-127366369D01*
X165952252Y-127366368D01*
X165952255Y-127366368D01*
X166122522Y-127306789D01*
X166275262Y-127210816D01*
X166402816Y-127083262D01*
X166416804Y-127061000D01*
X168418000Y-127061000D01*
X168418000Y-127608844D01*
X168424401Y-127668372D01*
X168424403Y-127668379D01*
X168474645Y-127803086D01*
X168474649Y-127803093D01*
X168560809Y-127918187D01*
X168560812Y-127918190D01*
X168675906Y-128004350D01*
X168675913Y-128004354D01*
X168810620Y-128054596D01*
X168810627Y-128054598D01*
X168870155Y-128060999D01*
X168870172Y-128061000D01*
X169968000Y-128061000D01*
X169968000Y-127061000D01*
X170468000Y-127061000D01*
X170468000Y-128061000D01*
X171565828Y-128061000D01*
X171565844Y-128060999D01*
X171625372Y-128054598D01*
X171625379Y-128054596D01*
X171760086Y-128004354D01*
X171760093Y-128004350D01*
X171875187Y-127918190D01*
X171875190Y-127918187D01*
X171961350Y-127803093D01*
X171961354Y-127803086D01*
X172011596Y-127668379D01*
X172011598Y-127668372D01*
X172017999Y-127608844D01*
X172018000Y-127608827D01*
X172018000Y-127061000D01*
X170468000Y-127061000D01*
X169968000Y-127061000D01*
X168418000Y-127061000D01*
X166416804Y-127061000D01*
X166498789Y-126930522D01*
X166558368Y-126760255D01*
X166558368Y-126760252D01*
X166558369Y-126760249D01*
X166578565Y-126581003D01*
X166578565Y-126580996D01*
X166576312Y-126561000D01*
X168418000Y-126561000D01*
X169968000Y-126561000D01*
X169968000Y-125561000D01*
X170468000Y-125561000D01*
X170468000Y-126561000D01*
X172018000Y-126561000D01*
X172018000Y-126013172D01*
X172017999Y-126013155D01*
X172011598Y-125953627D01*
X172011596Y-125953620D01*
X171961354Y-125818913D01*
X171961350Y-125818906D01*
X171875190Y-125703812D01*
X171875187Y-125703809D01*
X171760093Y-125617649D01*
X171760086Y-125617645D01*
X171625379Y-125567403D01*
X171625372Y-125567401D01*
X171565844Y-125561000D01*
X170468000Y-125561000D01*
X169968000Y-125561000D01*
X168870155Y-125561000D01*
X168810627Y-125567401D01*
X168810620Y-125567403D01*
X168675913Y-125617645D01*
X168675906Y-125617649D01*
X168560812Y-125703809D01*
X168560809Y-125703812D01*
X168474649Y-125818906D01*
X168474645Y-125818913D01*
X168424403Y-125953620D01*
X168424401Y-125953627D01*
X168418000Y-126013155D01*
X168418000Y-126561000D01*
X166576312Y-126561000D01*
X166558369Y-126401750D01*
X166558366Y-126401737D01*
X166498790Y-126231480D01*
X166483005Y-126206357D01*
X166464000Y-126140387D01*
X166464000Y-125198032D01*
X166481268Y-125134911D01*
X166524744Y-125061398D01*
X166558505Y-124945191D01*
X166570597Y-124903573D01*
X166570598Y-124903567D01*
X166573499Y-124866701D01*
X166573500Y-124866694D01*
X166573500Y-123085306D01*
X166570598Y-123048431D01*
X166567873Y-123039053D01*
X166524745Y-122890606D01*
X166524744Y-122890603D01*
X166524744Y-122890602D01*
X166441081Y-122749135D01*
X166420309Y-122728363D01*
X166392050Y-122684655D01*
X166389344Y-122677519D01*
X166383749Y-122669414D01*
X166372726Y-122649870D01*
X166368688Y-122640896D01*
X166332134Y-122594239D01*
X166327699Y-122588212D01*
X166326597Y-122586616D01*
X166294020Y-122539418D01*
X166253365Y-122503401D01*
X166249638Y-122500099D01*
X166244185Y-122494965D01*
X166152901Y-122403681D01*
X166119416Y-122342358D01*
X166124400Y-122272666D01*
X166166272Y-122216733D01*
X166231736Y-122192316D01*
X166240582Y-122192000D01*
X167018374Y-122192000D01*
X167025861Y-122192226D01*
X167085026Y-122195805D01*
X167085026Y-122195804D01*
X167085028Y-122195805D01*
X167143336Y-122185119D01*
X167150730Y-122183993D01*
X167209582Y-122176848D01*
X167218788Y-122173356D01*
X167240403Y-122167330D01*
X167250085Y-122165557D01*
X167304161Y-122141218D01*
X167311017Y-122138378D01*
X167366482Y-122117344D01*
X167374580Y-122111754D01*
X167394139Y-122100722D01*
X167403105Y-122096688D01*
X167449766Y-122060130D01*
X167455798Y-122055692D01*
X167504583Y-122022020D01*
X167543917Y-121977619D01*
X167549003Y-121972217D01*
X168149209Y-121372010D01*
X168154611Y-121366924D01*
X168199020Y-121327583D01*
X168232718Y-121278760D01*
X168237108Y-121272793D01*
X168273688Y-121226105D01*
X168277722Y-121217139D01*
X168288754Y-121197580D01*
X168294342Y-121189485D01*
X168294342Y-121189484D01*
X168294344Y-121189482D01*
X168315371Y-121134035D01*
X168318217Y-121127165D01*
X168342558Y-121073084D01*
X168344332Y-121063397D01*
X168350359Y-121041778D01*
X168353848Y-121032582D01*
X168360990Y-120973754D01*
X168362117Y-120966353D01*
X168372805Y-120908033D01*
X168372806Y-120908028D01*
X168369226Y-120848849D01*
X168369000Y-120841361D01*
X168369000Y-119373500D01*
X168388685Y-119306461D01*
X168441489Y-119260706D01*
X168493000Y-119249500D01*
X169010053Y-119249500D01*
X169077092Y-119269185D01*
X169115590Y-119308400D01*
X169150288Y-119364656D01*
X169150289Y-119364657D01*
X169150290Y-119364658D01*
X169274346Y-119488714D01*
X169277182Y-119490463D01*
X169278717Y-119492170D01*
X169280011Y-119493193D01*
X169279836Y-119493414D01*
X169323905Y-119542411D01*
X169335126Y-119611374D01*
X169307282Y-119675456D01*
X169277182Y-119701537D01*
X169274346Y-119703285D01*
X169150289Y-119827342D01*
X169058187Y-119976663D01*
X169058185Y-119976668D01*
X169030349Y-120060670D01*
X169003001Y-120143203D01*
X169003001Y-120143204D01*
X169003000Y-120143204D01*
X168992500Y-120245983D01*
X168992500Y-121021001D01*
X168992501Y-121021019D01*
X169003000Y-121123796D01*
X169003001Y-121123799D01*
X169037636Y-121228318D01*
X169058186Y-121290334D01*
X169150288Y-121439656D01*
X169274344Y-121563712D01*
X169423666Y-121655814D01*
X169442003Y-121661890D01*
X169499448Y-121701662D01*
X169526272Y-121766178D01*
X169527000Y-121779596D01*
X169527000Y-122436500D01*
X169507315Y-122503539D01*
X169454511Y-122549294D01*
X169403000Y-122560500D01*
X168870129Y-122560500D01*
X168870123Y-122560501D01*
X168810516Y-122566908D01*
X168675671Y-122617202D01*
X168675664Y-122617206D01*
X168560455Y-122703452D01*
X168560452Y-122703455D01*
X168474206Y-122818664D01*
X168474202Y-122818671D01*
X168423908Y-122953517D01*
X168418578Y-123003100D01*
X168417501Y-123013123D01*
X168417500Y-123013135D01*
X168417500Y-124608870D01*
X168417501Y-124608876D01*
X168423908Y-124668483D01*
X168474202Y-124803328D01*
X168474206Y-124803335D01*
X168560452Y-124918544D01*
X168560455Y-124918547D01*
X168675664Y-125004793D01*
X168675671Y-125004797D01*
X168810517Y-125055091D01*
X168810516Y-125055091D01*
X168817444Y-125055835D01*
X168870127Y-125061500D01*
X171565872Y-125061499D01*
X171625483Y-125055091D01*
X171760331Y-125004796D01*
X171875546Y-124918546D01*
X171961796Y-124803331D01*
X172012091Y-124668483D01*
X172018500Y-124608873D01*
X172018499Y-123013128D01*
X172012091Y-122953517D01*
X172009576Y-122946775D01*
X171961797Y-122818671D01*
X171961793Y-122818664D01*
X171875547Y-122703455D01*
X171875544Y-122703452D01*
X171760335Y-122617206D01*
X171760328Y-122617202D01*
X171625482Y-122566908D01*
X171625483Y-122566908D01*
X171565883Y-122560501D01*
X171565881Y-122560500D01*
X171565873Y-122560500D01*
X171565865Y-122560500D01*
X171033000Y-122560500D01*
X170965961Y-122540815D01*
X170920206Y-122488011D01*
X170909000Y-122436500D01*
X170909000Y-121779596D01*
X170928685Y-121712557D01*
X170981489Y-121666802D01*
X170993993Y-121661891D01*
X171012334Y-121655814D01*
X171161656Y-121563712D01*
X171285712Y-121439656D01*
X171377814Y-121290334D01*
X171432999Y-121123797D01*
X171443500Y-121021009D01*
X171443499Y-120245992D01*
X171443193Y-120243000D01*
X171432999Y-120143203D01*
X171432998Y-120143200D01*
X171412995Y-120082836D01*
X171377814Y-119976666D01*
X171285712Y-119827344D01*
X171161656Y-119703288D01*
X171158819Y-119701538D01*
X171157283Y-119699830D01*
X171155989Y-119698807D01*
X171156163Y-119698585D01*
X171112096Y-119649594D01*
X171100872Y-119580632D01*
X171128713Y-119516549D01*
X171158817Y-119490462D01*
X171161656Y-119488712D01*
X171285712Y-119364656D01*
X171377814Y-119215334D01*
X171432999Y-119048797D01*
X171443500Y-118946009D01*
X171443499Y-118170992D01*
X171439854Y-118135313D01*
X171432999Y-118068203D01*
X171432998Y-118068200D01*
X171410187Y-117999361D01*
X171377814Y-117901666D01*
X171285712Y-117752344D01*
X171161656Y-117628288D01*
X171040734Y-117553703D01*
X171012336Y-117536187D01*
X171012331Y-117536185D01*
X171010862Y-117535698D01*
X170845797Y-117481001D01*
X170845795Y-117481000D01*
X170743010Y-117470500D01*
X169692998Y-117470500D01*
X169692980Y-117470501D01*
X169590203Y-117481000D01*
X169590200Y-117481001D01*
X169423668Y-117536185D01*
X169423663Y-117536187D01*
X169274342Y-117628289D01*
X169150290Y-117752341D01*
X169150288Y-117752343D01*
X169150288Y-117752344D01*
X169115590Y-117808598D01*
X169063644Y-117855321D01*
X169010053Y-117867500D01*
X168105126Y-117867500D01*
X168097639Y-117867274D01*
X168038474Y-117863695D01*
X168038469Y-117863695D01*
X167980167Y-117874379D01*
X167972765Y-117875506D01*
X167913915Y-117882652D01*
X167913914Y-117882652D01*
X167904703Y-117886145D01*
X167883106Y-117892166D01*
X167873416Y-117893942D01*
X167842000Y-117908081D01*
X167819358Y-117918270D01*
X167812449Y-117921132D01*
X167757019Y-117942155D01*
X167748908Y-117947753D01*
X167729373Y-117958771D01*
X167720396Y-117962811D01*
X167720394Y-117962812D01*
X167673743Y-117999361D01*
X167667712Y-118003798D01*
X167618921Y-118037476D01*
X167618910Y-118037486D01*
X167579604Y-118081852D01*
X167574472Y-118087304D01*
X167206804Y-118454972D01*
X167201352Y-118460104D01*
X167156986Y-118499410D01*
X167156976Y-118499421D01*
X167123298Y-118548212D01*
X167118861Y-118554243D01*
X167082312Y-118600894D01*
X167082311Y-118600896D01*
X167078271Y-118609873D01*
X167067253Y-118629408D01*
X167061655Y-118637519D01*
X167040632Y-118692949D01*
X167037768Y-118699865D01*
X167013442Y-118753916D01*
X167011666Y-118763606D01*
X167005645Y-118785203D01*
X167002152Y-118794414D01*
X167002152Y-118794415D01*
X166995006Y-118853265D01*
X166993879Y-118860667D01*
X166983195Y-118918969D01*
X166983195Y-118918972D01*
X166984830Y-118946009D01*
X166986774Y-118978137D01*
X166987000Y-118985624D01*
X166987000Y-120528416D01*
X166967315Y-120595455D01*
X166950681Y-120616097D01*
X166793097Y-120773681D01*
X166731774Y-120807166D01*
X166705416Y-120810000D01*
X165475583Y-120810000D01*
X165408544Y-120790315D01*
X165387906Y-120773685D01*
X165287397Y-120673175D01*
X165253914Y-120611853D01*
X165258898Y-120542162D01*
X165300770Y-120486229D01*
X165366235Y-120461812D01*
X165409673Y-120466419D01*
X165520431Y-120498598D01*
X165557306Y-120501500D01*
X165557314Y-120501500D01*
X165988686Y-120501500D01*
X165988694Y-120501500D01*
X166025569Y-120498598D01*
X166025571Y-120498597D01*
X166025573Y-120498597D01*
X166068143Y-120486229D01*
X166183398Y-120452744D01*
X166324865Y-120369081D01*
X166441081Y-120252865D01*
X166524744Y-120111398D01*
X166565434Y-119971344D01*
X166570597Y-119953573D01*
X166570598Y-119953567D01*
X166571337Y-119944175D01*
X166573500Y-119916694D01*
X166573500Y-118135306D01*
X166570598Y-118098431D01*
X166567365Y-118087304D01*
X166528680Y-117954149D01*
X166524744Y-117940602D01*
X166481267Y-117867086D01*
X166464000Y-117803966D01*
X166464000Y-115810625D01*
X166464226Y-115803138D01*
X166467805Y-115743972D01*
X166461047Y-115707097D01*
X166457114Y-115685636D01*
X166455991Y-115678253D01*
X166448848Y-115619418D01*
X166445359Y-115610218D01*
X166439331Y-115588596D01*
X166437557Y-115578915D01*
X166413221Y-115524842D01*
X166410362Y-115517938D01*
X166389346Y-115462522D01*
X166389345Y-115462520D01*
X166389344Y-115462518D01*
X166383748Y-115454411D01*
X166372725Y-115434866D01*
X166368688Y-115425895D01*
X166332134Y-115379238D01*
X166327699Y-115373211D01*
X166294020Y-115324417D01*
X166249638Y-115285098D01*
X166244185Y-115279964D01*
X164374027Y-113409805D01*
X164368893Y-113404351D01*
X164329583Y-113359980D01*
X164280792Y-113326302D01*
X164274760Y-113321863D01*
X164228108Y-113285314D01*
X164228099Y-113285308D01*
X164219134Y-113281274D01*
X164199586Y-113270250D01*
X164193521Y-113266063D01*
X164191478Y-113264653D01*
X164136061Y-113243636D01*
X164129144Y-113240772D01*
X164075081Y-113216441D01*
X164075082Y-113216441D01*
X164065395Y-113214666D01*
X164043792Y-113208644D01*
X164034582Y-113205152D01*
X163975735Y-113198006D01*
X163968333Y-113196879D01*
X163910030Y-113186195D01*
X163910025Y-113186195D01*
X163850861Y-113189774D01*
X163843374Y-113190000D01*
X158812626Y-113190000D01*
X158805139Y-113189774D01*
X158745974Y-113186195D01*
X158745969Y-113186195D01*
X158687667Y-113196879D01*
X158680265Y-113198006D01*
X158621415Y-113205152D01*
X158621414Y-113205152D01*
X158612203Y-113208645D01*
X158590606Y-113214666D01*
X158580916Y-113216442D01*
X158543694Y-113233193D01*
X158526856Y-113240771D01*
X158519947Y-113243633D01*
X158464526Y-113264652D01*
X158464520Y-113264654D01*
X158464518Y-113264656D01*
X158464514Y-113264658D01*
X158464510Y-113264661D01*
X158456410Y-113270251D01*
X158436881Y-113281266D01*
X158427900Y-113285308D01*
X158427897Y-113285310D01*
X158427895Y-113285311D01*
X158427894Y-113285312D01*
X158381238Y-113321863D01*
X158381237Y-113321864D01*
X158375211Y-113326297D01*
X158326416Y-113359980D01*
X158326414Y-113359982D01*
X158287104Y-113404352D01*
X158281972Y-113409804D01*
X157046804Y-114644972D01*
X157041352Y-114650104D01*
X156996986Y-114689410D01*
X156996976Y-114689421D01*
X156963298Y-114738212D01*
X156958861Y-114744243D01*
X156922312Y-114790894D01*
X156922311Y-114790896D01*
X156918271Y-114799873D01*
X156907253Y-114819408D01*
X156901655Y-114827519D01*
X156880632Y-114882949D01*
X156877768Y-114889865D01*
X156853442Y-114943916D01*
X156851666Y-114953606D01*
X156845645Y-114975203D01*
X156842152Y-114984414D01*
X156842152Y-114984415D01*
X156835006Y-115043265D01*
X156833879Y-115050667D01*
X156823195Y-115108969D01*
X156823195Y-115108972D01*
X156826774Y-115168137D01*
X156827000Y-115175624D01*
X156827000Y-115900916D01*
X156807315Y-115967955D01*
X156790681Y-115988597D01*
X156240097Y-116539181D01*
X156178774Y-116572666D01*
X156152416Y-116575500D01*
X155802298Y-116575500D01*
X155765432Y-116578401D01*
X155765426Y-116578402D01*
X155607606Y-116624254D01*
X155607603Y-116624255D01*
X155466137Y-116707917D01*
X155466129Y-116707923D01*
X155349923Y-116824129D01*
X155349917Y-116824137D01*
X155266255Y-116965603D01*
X155266254Y-116965606D01*
X155220402Y-117123426D01*
X155220401Y-117123432D01*
X155217500Y-117160298D01*
X155217500Y-117210060D01*
X155197815Y-117277099D01*
X155145011Y-117322854D01*
X155075853Y-117332798D01*
X155012297Y-117303773D01*
X155005819Y-117297741D01*
X154934262Y-117226184D01*
X154781523Y-117130211D01*
X154611254Y-117070631D01*
X154611249Y-117070630D01*
X154432004Y-117050435D01*
X154431996Y-117050435D01*
X154252750Y-117070630D01*
X154252745Y-117070631D01*
X154082476Y-117130211D01*
X153929737Y-117226184D01*
X153802184Y-117353737D01*
X153706209Y-117506480D01*
X153648130Y-117672460D01*
X153607409Y-117729236D01*
X153542456Y-117754983D01*
X153473894Y-117741527D01*
X153443408Y-117719186D01*
X152601599Y-116877377D01*
X152572238Y-116830650D01*
X152569958Y-116824135D01*
X152528789Y-116706478D01*
X152528506Y-116706028D01*
X152474222Y-116619635D01*
X152432816Y-116553738D01*
X152305262Y-116426184D01*
X152268309Y-116402965D01*
X152152523Y-116330211D01*
X151982254Y-116270631D01*
X151982249Y-116270630D01*
X151803004Y-116250435D01*
X151802996Y-116250435D01*
X151623750Y-116270630D01*
X151623745Y-116270631D01*
X151453476Y-116330211D01*
X151428359Y-116345994D01*
X151362387Y-116365000D01*
X147430050Y-116365000D01*
X147363011Y-116345315D01*
X147317256Y-116292511D01*
X147314558Y-116285643D01*
X147313363Y-116283080D01*
X147313362Y-116283075D01*
X147313358Y-116283069D01*
X147313357Y-116283066D01*
X147222028Y-116135000D01*
X147222025Y-116134996D01*
X147099003Y-116011974D01*
X147098999Y-116011971D01*
X146950933Y-115920642D01*
X146950927Y-115920639D01*
X146950925Y-115920638D01*
X146915804Y-115909000D01*
X146785776Y-115865913D01*
X146683855Y-115855500D01*
X146683848Y-115855500D01*
X146097152Y-115855500D01*
X146097144Y-115855500D01*
X145995223Y-115865913D01*
X145830077Y-115920637D01*
X145830066Y-115920642D01*
X145682000Y-116011971D01*
X145681996Y-116011974D01*
X145558974Y-116134996D01*
X145558971Y-116135000D01*
X145558538Y-116135703D01*
X145558114Y-116136083D01*
X145554493Y-116140664D01*
X145553710Y-116140045D01*
X145506590Y-116182428D01*
X145437628Y-116193649D01*
X145373546Y-116165806D01*
X145351657Y-116140544D01*
X145351507Y-116140664D01*
X145348859Y-116137315D01*
X145347462Y-116135703D01*
X145347028Y-116135000D01*
X145347025Y-116134996D01*
X145224003Y-116011974D01*
X145223999Y-116011971D01*
X145075933Y-115920642D01*
X145075927Y-115920639D01*
X145075925Y-115920638D01*
X145040804Y-115909000D01*
X144910776Y-115865913D01*
X144808855Y-115855500D01*
X144808848Y-115855500D01*
X144222152Y-115855500D01*
X144222144Y-115855500D01*
X144120223Y-115865913D01*
X143955077Y-115920637D01*
X143955066Y-115920642D01*
X143807000Y-116011971D01*
X143806996Y-116011974D01*
X143683974Y-116134996D01*
X143683971Y-116135000D01*
X143592642Y-116283066D01*
X143592637Y-116283077D01*
X143537913Y-116448223D01*
X143527500Y-116550144D01*
X143527500Y-117015416D01*
X143507815Y-117082455D01*
X143491181Y-117103097D01*
X143320598Y-117273680D01*
X143259275Y-117307165D01*
X143232917Y-117309999D01*
X142260031Y-117309999D01*
X142192992Y-117290314D01*
X142147237Y-117237510D01*
X142143849Y-117229332D01*
X142137597Y-117212570D01*
X142137593Y-117212563D01*
X142051347Y-117097354D01*
X142051344Y-117097351D01*
X141936135Y-117011105D01*
X141936128Y-117011101D01*
X141801282Y-116960807D01*
X141801283Y-116960807D01*
X141741683Y-116954400D01*
X141741681Y-116954399D01*
X141741673Y-116954399D01*
X141741665Y-116954399D01*
X139674703Y-116954399D01*
X139607664Y-116934714D01*
X139561909Y-116881910D01*
X139551965Y-116812752D01*
X139580990Y-116749196D01*
X139601818Y-116730080D01*
X139775886Y-116603613D01*
X139775887Y-116603613D01*
X139931286Y-116441078D01*
X140055174Y-116253397D01*
X140143557Y-116046613D01*
X140143559Y-116046607D01*
X140174968Y-115909000D01*
X139417449Y-115909000D01*
X139421822Y-115902805D01*
X139470152Y-115766819D01*
X139480001Y-115622836D01*
X139450638Y-115481535D01*
X139413054Y-115409000D01*
X140177445Y-115409000D01*
X140173502Y-115379886D01*
X140173501Y-115379882D01*
X140104009Y-115166007D01*
X139997448Y-114967984D01*
X139997446Y-114967981D01*
X139857238Y-114792165D01*
X139687894Y-114644215D01*
X139687886Y-114644209D01*
X139494849Y-114528873D01*
X139494843Y-114528871D01*
X139284302Y-114449852D01*
X139063043Y-114409700D01*
X138451300Y-114409700D01*
X138451300Y-115134000D01*
X137951300Y-115134000D01*
X137951300Y-114409700D01*
X137395893Y-114409700D01*
X137228026Y-114424807D01*
X137011262Y-114484630D01*
X137011249Y-114484635D01*
X136808651Y-114582201D01*
X136808643Y-114582205D01*
X136626720Y-114714380D01*
X136626712Y-114714386D01*
X136471313Y-114876921D01*
X136347425Y-115064602D01*
X136259042Y-115271386D01*
X136259040Y-115271392D01*
X136227632Y-115408999D01*
X136227632Y-115409000D01*
X136985151Y-115409000D01*
X136980778Y-115415195D01*
X136932448Y-115551181D01*
X136922599Y-115695164D01*
X136951962Y-115836465D01*
X136989546Y-115909000D01*
X136225155Y-115909000D01*
X135750000Y-115909000D01*
X135750000Y-113051362D01*
X135769685Y-112984323D01*
X135786319Y-112963681D01*
X136481999Y-112268001D01*
X140426532Y-112268001D01*
X140446364Y-112494686D01*
X140446366Y-112494697D01*
X140505258Y-112714488D01*
X140505261Y-112714497D01*
X140601431Y-112920732D01*
X140601432Y-112920734D01*
X140731954Y-113107141D01*
X140892858Y-113268045D01*
X140911740Y-113281266D01*
X141079266Y-113398568D01*
X141285504Y-113494739D01*
X141505308Y-113553635D01*
X141675214Y-113568499D01*
X141675215Y-113568500D01*
X141675216Y-113568500D01*
X141788785Y-113568500D01*
X141788785Y-113568499D01*
X141958692Y-113553635D01*
X142178496Y-113494739D01*
X142384734Y-113398568D01*
X142571139Y-113268047D01*
X142732047Y-113107139D01*
X142862568Y-112920734D01*
X142958739Y-112714496D01*
X143017635Y-112494692D01*
X143037468Y-112268001D01*
X171414532Y-112268001D01*
X171434364Y-112494686D01*
X171434366Y-112494697D01*
X171493258Y-112714488D01*
X171493261Y-112714497D01*
X171589431Y-112920732D01*
X171589432Y-112920734D01*
X171719954Y-113107141D01*
X171880858Y-113268045D01*
X171899740Y-113281266D01*
X172067266Y-113398568D01*
X172273504Y-113494739D01*
X172493308Y-113553635D01*
X172663214Y-113568499D01*
X172663215Y-113568500D01*
X172663216Y-113568500D01*
X172776785Y-113568500D01*
X172776785Y-113568499D01*
X172946692Y-113553635D01*
X173166496Y-113494739D01*
X173372734Y-113398568D01*
X173559139Y-113268047D01*
X173720047Y-113107139D01*
X173850568Y-112920734D01*
X173946739Y-112714496D01*
X174005635Y-112494692D01*
X174025468Y-112268000D01*
X174005635Y-112041308D01*
X173946739Y-111821504D01*
X173850568Y-111615266D01*
X173720047Y-111428861D01*
X173720045Y-111428858D01*
X173559141Y-111267954D01*
X173372734Y-111137432D01*
X173372732Y-111137431D01*
X173166497Y-111041261D01*
X173166488Y-111041258D01*
X172946697Y-110982366D01*
X172946687Y-110982364D01*
X172776785Y-110967500D01*
X172776784Y-110967500D01*
X172663216Y-110967500D01*
X172663215Y-110967500D01*
X172493312Y-110982364D01*
X172493302Y-110982366D01*
X172273511Y-111041258D01*
X172273502Y-111041261D01*
X172067267Y-111137431D01*
X172067265Y-111137432D01*
X171880858Y-111267954D01*
X171719954Y-111428858D01*
X171589432Y-111615265D01*
X171589431Y-111615267D01*
X171493261Y-111821502D01*
X171493258Y-111821511D01*
X171434366Y-112041302D01*
X171434364Y-112041313D01*
X171414532Y-112267998D01*
X171414532Y-112268001D01*
X143037468Y-112268001D01*
X143037468Y-112268000D01*
X143017635Y-112041308D01*
X142958739Y-111821504D01*
X142862568Y-111615266D01*
X142732047Y-111428861D01*
X142732045Y-111428858D01*
X142571141Y-111267954D01*
X142384734Y-111137432D01*
X142384732Y-111137431D01*
X142178497Y-111041261D01*
X142178488Y-111041258D01*
X141958697Y-110982366D01*
X141958687Y-110982364D01*
X141788785Y-110967500D01*
X141788784Y-110967500D01*
X141675216Y-110967500D01*
X141675215Y-110967500D01*
X141505312Y-110982364D01*
X141505302Y-110982366D01*
X141285511Y-111041258D01*
X141285502Y-111041261D01*
X141079267Y-111137431D01*
X141079265Y-111137432D01*
X140892858Y-111267954D01*
X140731954Y-111428858D01*
X140601432Y-111615265D01*
X140601431Y-111615267D01*
X140505261Y-111821502D01*
X140505258Y-111821511D01*
X140446366Y-112041302D01*
X140446364Y-112041313D01*
X140426532Y-112267998D01*
X140426532Y-112268001D01*
X136481999Y-112268001D01*
X138963681Y-109786319D01*
X139025004Y-109752834D01*
X139051362Y-109750000D01*
X175030824Y-109750000D01*
X175097863Y-109769685D01*
G37*
%TD.AperFunction*%
%TD*%
M02*
